<svg width="279" height="278" viewBox="0 0 279 278" fill="none" xmlns="http://www.w3.org/2000/svg">
<rect width="277.601" height="277.601" transform="translate(0.798828 0.39917)" fill="white"/>
<path d="M68.5272 17.8262C63.6309 18.5366 59.8462 22.0287 59.2242 26.3878C59.1581 26.8815 59.0919 27.3873 59.0919 27.5077C59.0919 27.7004 59.0257 27.6883 58.5361 27.4114C54.9631 25.3884 51.2181 25.1716 47.6451 26.7611C45.4087 27.7485 43.781 29.2417 42.6959 31.2647C41.6372 33.2396 41.3196 35.0338 41.6901 36.9484C42.1004 39.0798 43.0399 40.874 44.4294 42.2227L45.1705 42.9452L46.4673 41.7651C48.7964 39.6337 50.6888 38.3934 53.6001 37.0447C56.5643 35.672 59.2507 34.9134 62.7575 34.4558C64.4646 34.227 65.1263 34.2029 67.8921 34.2511C72.656 34.3354 75.7129 34.8532 80.0667 36.3222C81.2312 36.7196 84.341 38.0803 85.2277 38.574C86.8818 39.5133 88.8933 40.7897 89.9123 41.5604C90.521 42.03 91.0768 42.4033 91.1297 42.4033C91.1959 42.4033 91.4738 42.1143 91.7517 41.7651C93.3264 39.8023 93.9616 37.9358 93.9352 35.4191C93.8822 31.6862 91.5796 28.4108 87.8743 26.7611C85.7835 25.8219 84.3807 25.6292 81.1386 25.8219L80.6225 25.8459L80.4637 25.2439C79.7358 22.3418 77.5259 19.8853 74.5484 18.645C72.8016 17.9225 70.2608 17.5853 68.5272 17.8262Z" fill="#80BA57"/>
<path d="M104.905 18.5844C104.813 18.6687 104.747 18.8613 104.76 19.0299L104.773 19.343L104.866 19.042C104.919 18.8734 105.077 18.7289 105.21 18.7048C105.633 18.6326 105.765 18.4399 105.395 18.4399C105.21 18.4399 104.998 18.5001 104.905 18.5844Z" fill="#80BA57"/>
<path d="M106.401 18.5604C106.441 18.6206 106.626 18.6808 106.811 18.6808C107.063 18.6808 107.129 18.741 107.142 19.0059C107.168 19.307 107.168 19.307 107.221 19.0661C107.261 18.9096 107.208 18.7049 107.129 18.6086C106.943 18.4159 106.269 18.3677 106.401 18.5604Z" fill="#80BA57"/>
<path d="M105.726 19.4518C105.607 19.7408 105.779 20.0298 106.03 19.9816C106.189 19.9576 106.269 19.8371 106.269 19.6445C106.269 19.2953 105.845 19.1508 105.726 19.4518ZM106.202 19.6445C106.202 19.7769 106.11 19.8853 106.004 19.8853C105.898 19.8853 105.805 19.7769 105.805 19.6445C105.805 19.512 105.898 19.4036 106.004 19.4036C106.11 19.4036 106.202 19.512 106.202 19.6445Z" fill="#80BA57"/>
<path d="M104.76 20.2464C104.747 20.6318 104.972 20.8485 105.395 20.8485C105.766 20.8485 105.633 20.6558 105.21 20.5836C105.078 20.5595 104.919 20.415 104.866 20.2464L104.773 19.9454L104.76 20.2464Z" fill="#80BA57"/>
<path d="M107.142 20.2227C107.142 20.3672 107.023 20.5237 106.904 20.5599C106.308 20.7405 106.269 20.7766 106.586 20.8248C106.983 20.885 107.301 20.596 107.222 20.2347C107.169 19.9457 107.169 19.9457 107.142 20.2227Z" fill="#80BA57"/>
<path d="M63.9354 36.816C55.3337 37.7071 48.2539 41.9337 44.2045 48.5928C43.6487 49.508 43.662 49.5561 44.5751 49.7006C45.7793 49.8812 48.426 50.9289 49.9742 51.832C51.1917 52.5425 52.6077 53.6262 53.8781 54.8304C54.5397 55.4445 55.4661 56.2634 55.9425 56.6487C57.1864 57.612 58.4171 59.1775 59.4228 61.0078C60.6932 63.3439 61.3681 65.2706 62.0695 68.5339C62.5062 70.4967 62.6517 73.194 62.4003 74.338C61.7916 77.1919 59.8331 79.5641 57.0938 80.7923L55.8101 81.3583L55.6513 82.2012C55.5587 82.6588 55.4661 84.152 55.4264 85.5127C55.3734 87.5959 55.3999 88.2823 55.6513 89.9079C56.0483 92.6896 55.8763 92.4126 57.2261 92.3163C68.9111 91.5456 77.1554 90.1006 85.2939 87.4032C87.1201 86.8012 87.7685 86.5362 90.1373 85.4525C97.2171 82.1892 101.28 78.0107 102.312 72.9291C103.159 68.7265 101.386 60.8753 98.3419 55.3C96.1452 51.2901 93.4721 47.9064 90.1638 44.9803C85.2675 40.6332 79.0213 37.8395 72.1533 36.9123C70.155 36.6474 65.9998 36.5992 63.9354 36.816ZM66.8335 44.9321C68.2097 45.1127 69.6125 45.5703 72.193 46.6782C75.7792 48.2315 77.0496 48.5446 79.6433 48.5446C80.5167 48.5446 81.2048 48.5807 81.1519 48.6169C81.1122 48.653 80.5564 48.8457 79.9212 49.0504C77.473 49.797 76.2556 50.5676 72.934 53.4697C70.5388 55.5529 69.5066 56.2393 67.6936 56.9136C66.4762 57.3592 64.7823 57.7084 63.3928 57.7806C59.3302 58.0094 56.1277 55.1435 56.1277 51.254C56.1277 48.5205 57.8216 46.2567 60.5609 45.3415C61.8842 44.896 64.994 44.7033 66.8335 44.9321ZM94.8219 59.912C95.0733 61.7423 94.9278 64.6685 94.5043 66.2459C93.975 68.1847 93.5383 69.3045 92.6913 70.882C91.4077 73.2663 90.4681 74.4584 88.417 76.3008C85.2807 79.1185 81.1387 81.0452 76.9834 81.6112C74.8925 81.9002 74.6543 81.7918 76.2953 81.3101C82.8722 79.3473 88.02 75.5542 91.2224 70.316C93.0883 67.2574 94.372 62.6455 94.4249 58.7801C94.4381 58.0335 94.6499 58.6356 94.8219 59.912Z" fill="#80BA57"/>
<path d="M64.4908 49.0142C63.7895 49.2189 63.194 49.6524 62.8234 50.2063C62.5323 50.6639 62.4661 50.9168 62.4794 51.5189C62.4926 52.41 62.8896 53.0482 63.7365 53.566C64.1997 53.8429 64.4247 53.8911 65.179 53.8911C65.9333 53.8911 66.1582 53.8429 66.6214 53.566C66.9125 53.3854 67.3227 53.0241 67.5212 52.7472C68.302 51.6634 67.8521 50.0016 66.5817 49.3273C65.9597 48.9901 65.0466 48.8577 64.4908 49.0142Z" fill="#80BA57"/>
<path d="M40.8828 52.5787C38.3288 53.7828 36.3968 55.0592 34.9411 56.5163C34.1074 57.3592 33.2208 58.5152 33.3266 58.6116C33.3663 58.6477 33.6575 58.5393 33.9751 58.3828C35.391 57.6241 38.2097 56.7451 41.0284 56.1791C42.7487 55.8299 46.7717 55.3362 48.889 55.2158C50.6093 55.1195 50.6225 55.1917 48.836 54.12C47.1554 53.0964 45.2234 52.3378 43.3575 51.9766L42.4973 51.82L40.8828 52.5787Z" fill="#80BA57"/>
<path d="M50.3578 57.6478C50.1064 57.6719 49.0609 57.7442 48.042 57.8164C42.2722 58.2138 37.6274 59.2614 34.7425 60.8148C33.8029 61.3205 32.4002 62.4766 32.0958 62.9943C31.9635 63.2231 31.99 63.2231 32.5193 62.9221C33.4853 62.3682 34.8748 61.8383 36.2643 61.5132C38.8448 60.9111 43.3574 60.598 46.4143 60.8148L48.2405 60.9352L49.3918 59.8876C50.0402 59.3096 50.993 58.575 51.5223 58.262C52.0384 57.9489 52.4751 57.6599 52.4751 57.6358C52.4751 57.5756 51.1518 57.5876 50.3578 57.6478Z" fill="#80BA57"/>
<path d="M52.7926 60.5017C51.9986 61.0436 50.9134 62.031 50.093 62.9703L49.643 63.4881L48.1609 63.4038L46.6788 63.3195L46.4009 63.8252C45.7524 64.9692 45.4348 66.4263 45.3687 68.5336C45.3157 70.3519 45.329 70.6529 45.6598 72.0618C46.8111 77.1554 49.6166 79.6481 53.6395 79.1664C57.0537 78.757 59.7533 75.9151 59.7533 72.7361C59.7533 71.7969 59.2239 68.5576 58.8269 67.0886C58.1785 64.6802 57.0404 62.1033 55.9818 60.6583L55.4921 59.9839H54.5261C53.5998 59.9839 53.5336 60.008 52.7926 60.5017Z" fill="#80BA57"/>
<path d="M68.5272 101.965C63.6309 102.675 59.8462 106.168 59.2242 110.527C59.1581 111.02 59.0919 111.526 59.0919 111.647C59.0919 111.839 59.0257 111.827 58.5361 111.55C54.9631 109.527 51.2181 109.31 47.6451 110.9C45.4087 111.887 43.781 113.381 42.6959 115.404C41.6372 117.378 41.3196 119.173 41.6901 121.087C42.1004 123.219 43.0399 125.013 44.4294 126.361L45.1705 127.084L46.4673 125.904C48.7964 123.773 50.6888 122.532 53.6001 121.184C56.5643 119.811 59.2507 119.052 62.7575 118.595C64.4646 118.366 65.1263 118.342 67.8921 118.39C72.656 118.474 75.7129 118.992 80.0667 120.461C81.2312 120.858 84.341 122.219 85.2277 122.713C86.8818 123.652 88.8933 124.929 89.9123 125.699C90.521 126.169 91.0768 126.542 91.1297 126.542C91.1959 126.542 91.4738 126.253 91.7517 125.904C93.3264 123.941 93.9616 122.075 93.9352 119.558C93.8822 115.825 91.5796 112.55 87.8743 110.9C85.7835 109.961 84.3807 109.768 81.1386 109.961L80.6225 109.985L80.4637 109.383C79.7358 106.481 77.5259 104.024 74.5484 102.784C72.8016 102.061 70.2608 101.724 68.5272 101.965Z" fill="#80BA57"/>
<path d="M104.905 102.724C104.813 102.808 104.747 103.001 104.76 103.169L104.773 103.482L104.866 103.181C104.919 103.013 105.077 102.868 105.21 102.844C105.633 102.772 105.765 102.579 105.395 102.579C105.21 102.579 104.998 102.639 104.905 102.724Z" fill="#80BA57"/>
<path d="M106.401 102.699C106.441 102.759 106.626 102.82 106.811 102.82C107.063 102.82 107.129 102.88 107.142 103.145C107.168 103.446 107.168 103.446 107.221 103.205C107.261 103.048 107.208 102.844 107.129 102.747C106.943 102.555 106.269 102.507 106.401 102.699Z" fill="#80BA57"/>
<path d="M105.726 103.591C105.607 103.88 105.779 104.169 106.03 104.12C106.189 104.096 106.269 103.976 106.269 103.783C106.269 103.434 105.845 103.29 105.726 103.591ZM106.202 103.783C106.202 103.916 106.11 104.024 106.004 104.024C105.898 104.024 105.805 103.916 105.805 103.783C105.805 103.651 105.898 103.542 106.004 103.542C106.11 103.542 106.202 103.651 106.202 103.783Z" fill="#80BA57"/>
<path d="M104.76 104.385C104.747 104.771 104.972 104.987 105.395 104.987C105.766 104.987 105.633 104.795 105.21 104.722C105.078 104.698 104.919 104.554 104.866 104.385L104.773 104.084L104.76 104.385Z" fill="#80BA57"/>
<path d="M107.142 104.361C107.142 104.506 107.023 104.663 106.904 104.699C106.308 104.879 106.269 104.915 106.586 104.964C106.983 105.024 107.301 104.735 107.222 104.374C107.169 104.085 107.169 104.085 107.142 104.361Z" fill="#80BA57"/>
<path d="M63.9354 120.955C55.3337 121.846 48.2539 126.073 44.2045 132.732C43.6487 133.647 43.662 133.695 44.5751 133.839C45.7793 134.02 48.426 135.068 49.9742 135.971C51.1917 136.681 52.6077 137.765 53.8781 138.969C54.5397 139.583 55.4661 140.402 55.9425 140.787C57.1864 141.751 58.4171 143.316 59.4228 145.147C60.6932 147.483 61.3681 149.409 62.0695 152.673C62.5062 154.635 62.6517 157.333 62.4003 158.477C61.7916 161.331 59.8331 163.703 57.0938 164.931L55.8101 165.497L55.6513 166.34C55.5587 166.798 55.4661 168.291 55.4264 169.651C55.3734 171.735 55.3999 172.421 55.6513 174.047C56.0483 176.828 55.8763 176.551 57.2261 176.455C68.9111 175.684 77.1554 174.239 85.2939 171.542C87.1201 170.94 87.7685 170.675 90.1373 169.591C97.2171 166.328 101.28 162.149 102.312 157.068C103.159 152.865 101.386 145.014 98.3419 139.439C96.1452 135.429 93.4721 132.045 90.1638 129.119C85.2675 124.772 79.0213 121.978 72.1533 121.051C70.155 120.786 65.9998 120.738 63.9354 120.955ZM66.8335 129.071C68.2097 129.252 69.6125 129.709 72.193 130.817C75.7792 132.37 77.0496 132.683 79.6433 132.683C80.5167 132.683 81.2048 132.72 81.1519 132.756C81.1122 132.792 80.5564 132.984 79.9212 133.189C77.473 133.936 76.2556 134.706 72.934 137.608C70.5388 139.692 69.5066 140.378 67.6936 141.052C66.4762 141.498 64.7823 141.847 63.3928 141.919C59.3302 142.148 56.1277 139.282 56.1277 135.393C56.1277 132.659 57.8216 130.395 60.5609 129.48C61.8842 129.035 64.994 128.842 66.8335 129.071ZM94.8219 144.051C95.0733 145.881 94.9278 148.807 94.5043 150.385C93.975 152.323 93.5383 153.443 92.6913 155.021C91.4077 157.405 90.4681 158.597 88.417 160.44C85.2807 163.257 81.1387 165.184 76.9834 165.75C74.8925 166.039 74.6543 165.931 76.2953 165.449C82.8722 163.486 88.02 159.693 91.2224 154.455C93.0883 151.396 94.372 146.784 94.4249 142.919C94.4381 142.172 94.6499 142.774 94.8219 144.051Z" fill="#80BA57"/>
<path d="M64.4908 133.153C63.7895 133.358 63.194 133.791 62.8234 134.345C62.5323 134.803 62.4661 135.056 62.4794 135.658C62.4926 136.549 62.8896 137.187 63.7365 137.705C64.1997 137.982 64.4247 138.03 65.179 138.03C65.9333 138.03 66.1582 137.982 66.6214 137.705C66.9125 137.524 67.3227 137.163 67.5212 136.886C68.302 135.802 67.8521 134.14 66.5817 133.466C65.9597 133.129 65.0466 132.996 64.4908 133.153Z" fill="#80BA57"/>
<path d="M40.8828 136.717C38.3288 137.922 36.3968 139.198 34.9411 140.655C34.1074 141.498 33.2208 142.654 33.3266 142.75C33.3663 142.786 33.6575 142.678 33.9751 142.522C35.391 141.763 38.2097 140.884 41.0284 140.318C42.7487 139.969 46.7717 139.475 48.889 139.355C50.6093 139.258 50.6225 139.331 48.836 138.259C47.1554 137.235 45.2234 136.477 43.3575 136.115L42.4973 135.959L40.8828 136.717Z" fill="#80BA57"/>
<path d="M50.3578 141.787C50.1064 141.811 49.0609 141.883 48.042 141.955C42.2722 142.353 37.6274 143.4 34.7425 144.954C33.8029 145.46 32.4002 146.616 32.0958 147.133C31.9635 147.362 31.99 147.362 32.5193 147.061C33.4853 146.507 34.8748 145.977 36.2643 145.652C38.8448 145.05 43.3574 144.737 46.4143 144.954L48.2405 145.074L49.3918 144.027C50.0402 143.449 50.993 142.714 51.5223 142.401C52.0384 142.088 52.4751 141.799 52.4751 141.775C52.4751 141.715 51.1518 141.727 50.3578 141.787Z" fill="#80BA57"/>
<path d="M52.7926 144.641C51.9986 145.182 50.9134 146.17 50.093 147.109L49.643 147.627L48.1609 147.543L46.6788 147.458L46.4009 147.964C45.7524 149.108 45.4348 150.565 45.3687 152.672C45.3157 154.491 45.329 154.792 45.6598 156.201C46.8111 161.294 49.6166 163.787 53.6395 163.305C57.0537 162.896 59.7533 160.054 59.7533 156.875C59.7533 155.936 59.2239 152.696 58.8269 151.227C58.1785 148.819 57.0404 146.242 55.9818 144.797L55.4921 144.123H54.5261C53.5998 144.123 53.5336 144.147 52.7926 144.641Z" fill="#80BA57"/>
<path d="M68.5272 186.104C63.6309 186.815 59.8462 190.307 59.2242 194.666C59.1581 195.159 59.0919 195.665 59.0919 195.786C59.0919 195.978 59.0257 195.966 58.5361 195.689C54.9631 193.666 51.2181 193.45 47.6451 195.039C45.4087 196.026 43.781 197.52 42.6959 199.543C41.6372 201.518 41.3196 203.312 41.6901 205.226C42.1004 207.358 43.0399 209.152 44.4294 210.501L45.1705 211.223L46.4673 210.043C48.7964 207.912 50.6888 206.671 53.6001 205.323C56.5643 203.95 59.2507 203.191 62.7575 202.734C64.4646 202.505 65.1263 202.481 67.8921 202.529C72.656 202.613 75.7129 203.131 80.0667 204.6C81.2312 204.998 84.341 206.358 85.2277 206.852C86.8818 207.791 88.8933 209.068 89.9123 209.838C90.521 210.308 91.0768 210.681 91.1297 210.681C91.1959 210.681 91.4738 210.392 91.7517 210.043C93.3264 208.08 93.9616 206.214 93.9352 203.697C93.8822 199.964 91.5796 196.689 87.8743 195.039C85.7835 194.1 84.3807 193.907 81.1386 194.1L80.6225 194.124L80.4637 193.522C79.7358 190.62 77.5259 188.163 74.5484 186.923C72.8016 186.2 70.2608 185.863 68.5272 186.104Z" fill="#80BA57"/>
<path d="M104.905 186.863C104.813 186.947 104.747 187.14 104.76 187.308L104.773 187.621L104.866 187.32C104.919 187.152 105.077 187.007 105.21 186.983C105.633 186.911 105.765 186.718 105.395 186.718C105.21 186.718 104.998 186.778 104.905 186.863Z" fill="#80BA57"/>
<path d="M106.401 186.839C106.441 186.899 106.626 186.959 106.811 186.959C107.063 186.959 107.129 187.019 107.142 187.284C107.168 187.585 107.168 187.585 107.221 187.344C107.261 187.188 107.208 186.983 107.129 186.887C106.943 186.694 106.269 186.646 106.401 186.839Z" fill="#80BA57"/>
<path d="M105.726 187.73C105.607 188.019 105.779 188.308 106.03 188.26C106.189 188.236 106.269 188.115 106.269 187.922C106.269 187.573 105.845 187.429 105.726 187.73ZM106.202 187.922C106.202 188.055 106.11 188.163 106.004 188.163C105.898 188.163 105.805 188.055 105.805 187.922C105.805 187.79 105.898 187.682 106.004 187.682C106.11 187.682 106.202 187.79 106.202 187.922Z" fill="#80BA57"/>
<path d="M104.76 188.524C104.747 188.91 104.972 189.126 105.395 189.126C105.766 189.126 105.633 188.934 105.21 188.862C105.078 188.837 104.919 188.693 104.866 188.524L104.773 188.223L104.76 188.524Z" fill="#80BA57"/>
<path d="M107.142 188.501C107.142 188.645 107.023 188.802 106.904 188.838C106.308 189.018 106.269 189.055 106.586 189.103C106.983 189.163 107.301 188.874 107.222 188.513C107.169 188.224 107.169 188.224 107.142 188.501Z" fill="#80BA57"/>
<path d="M63.9354 205.094C55.3337 205.985 48.2539 210.212 44.2045 216.871C43.6487 217.786 43.662 217.834 44.5751 217.978C45.7793 218.159 48.426 219.207 49.9742 220.11C51.1917 220.82 52.6077 221.904 53.8781 223.108C54.5397 223.722 55.4661 224.541 55.9425 224.927C57.1864 225.89 58.4171 227.455 59.4228 229.286C60.6932 231.622 61.3681 233.548 62.0695 236.812C62.5062 238.775 62.6517 241.472 62.4003 242.616C61.7916 245.47 59.8331 247.842 57.0938 249.07L55.8101 249.636L55.6513 250.479C55.5587 250.937 55.4661 252.43 55.4264 253.791C55.3734 255.874 55.3999 256.56 55.6513 258.186C56.0483 260.967 55.8763 260.69 57.2261 260.594C68.9111 259.823 77.1554 258.378 85.2939 255.681C87.1201 255.079 87.7685 254.814 90.1373 253.73C97.2171 250.467 101.28 246.289 102.312 241.207C103.159 237.004 101.386 229.153 98.3419 223.578C96.1452 219.568 93.4721 216.184 90.1638 213.258C85.2675 208.911 79.0213 206.117 72.1533 205.19C70.155 204.925 65.9998 204.877 63.9354 205.094ZM66.8335 213.21C68.2097 213.391 69.6125 213.848 72.193 214.956C75.7792 216.509 77.0496 216.822 79.6433 216.822C80.5167 216.822 81.2048 216.859 81.1519 216.895C81.1122 216.931 80.5564 217.123 79.9212 217.328C77.473 218.075 76.2556 218.845 72.934 221.748C70.5388 223.831 69.5066 224.517 67.6936 225.191C66.4762 225.637 64.7823 225.986 63.3928 226.058C59.3302 226.287 56.1277 223.421 56.1277 219.532C56.1277 216.798 57.8216 214.535 60.5609 213.619C61.8842 213.174 64.994 212.981 66.8335 213.21ZM94.8219 228.19C95.0733 230.02 94.9278 232.946 94.5043 234.524C93.975 236.462 93.5383 237.582 92.6913 239.16C91.4077 241.544 90.4681 242.736 88.417 244.579C85.2807 247.396 81.1387 249.323 76.9834 249.889C74.8925 250.178 74.6543 250.07 76.2953 249.588C82.8722 247.625 88.02 243.832 91.2224 238.594C93.0883 235.535 94.372 230.923 94.4249 227.058C94.4381 226.311 94.6499 226.913 94.8219 228.19Z" fill="#80BA57"/>
<path d="M64.4908 217.292C63.7895 217.497 63.194 217.93 62.8234 218.484C62.5323 218.942 62.4661 219.195 62.4794 219.797C62.4926 220.688 62.8896 221.326 63.7365 221.844C64.1997 222.121 64.4247 222.169 65.179 222.169C65.9333 222.169 66.1582 222.121 66.6214 221.844C66.9125 221.663 67.3227 221.302 67.5212 221.025C68.302 219.941 67.8521 218.28 66.5817 217.605C65.9597 217.268 65.0466 217.136 64.4908 217.292Z" fill="#80BA57"/>
<path d="M40.8828 220.857C38.3288 222.061 36.3968 223.337 34.9411 224.794C34.1074 225.637 33.2208 226.793 33.3266 226.89C33.3663 226.926 33.6575 226.817 33.9751 226.661C35.391 225.902 38.2097 225.023 41.0284 224.457C42.7487 224.108 46.7717 223.614 48.889 223.494C50.6093 223.397 50.6225 223.47 48.836 222.398C47.1554 221.374 45.2234 220.616 43.3575 220.255L42.4973 220.098L40.8828 220.857Z" fill="#80BA57"/>
<path d="M50.3578 225.926C50.1064 225.95 49.0609 226.022 48.042 226.095C42.2722 226.492 37.6274 227.54 34.7425 229.093C33.8029 229.599 32.4002 230.755 32.0958 231.273C31.9635 231.501 31.99 231.501 32.5193 231.2C33.4853 230.646 34.8748 230.117 36.2643 229.791C38.8448 229.189 43.3574 228.876 46.4143 229.093L48.2405 229.213L49.3918 228.166C50.0402 227.588 50.993 226.853 51.5223 226.54C52.0384 226.227 52.4751 225.938 52.4751 225.914C52.4751 225.854 51.1518 225.866 50.3578 225.926Z" fill="#80BA57"/>
<path d="M52.7926 228.78C51.9986 229.322 50.9134 230.309 50.093 231.248L49.643 231.766L48.1609 231.682L46.6788 231.597L46.4009 232.103C45.7524 233.247 45.4348 234.704 45.3687 236.812C45.3157 238.63 45.329 238.931 45.6598 240.34C46.8111 245.433 49.6166 247.926 53.6395 247.444C57.0537 247.035 59.7533 244.193 59.7533 241.014C59.7533 240.075 59.2239 236.836 58.8269 235.367C58.1785 232.958 57.0404 230.381 55.9818 228.936L55.4921 228.262H54.5261C53.5998 228.262 53.5336 228.286 52.7926 228.78Z" fill="#80BA57"/>
<path d="M209.663 17.8262C204.767 18.5366 200.982 22.0287 200.36 26.3878C200.294 26.8815 200.228 27.3873 200.228 27.5077C200.228 27.7004 200.162 27.6883 199.672 27.4114C196.099 25.3884 192.354 25.1716 188.781 26.7611C186.545 27.7485 184.917 29.2417 183.832 31.2647C182.773 33.2396 182.456 35.0338 182.826 36.9484C183.237 39.0798 184.176 40.874 185.566 42.2227L186.307 42.9452L187.604 41.7651C189.933 39.6337 191.825 38.3934 194.736 37.0447C197.701 35.672 200.387 34.9134 203.894 34.4558C205.601 34.227 206.263 34.2029 209.028 34.2511C213.792 34.3354 216.849 34.8532 221.203 36.3222C222.367 36.7196 225.477 38.0803 226.364 38.574C228.018 39.5133 230.03 40.7897 231.048 41.5604C231.657 42.03 232.213 42.4033 232.266 42.4033C232.332 42.4033 232.61 42.1143 232.888 41.7651C234.463 39.8023 235.098 37.9358 235.071 35.4191C235.018 31.6862 232.716 28.4108 229.011 26.7611C226.92 25.8219 225.517 25.6292 222.275 25.8219L221.759 25.8459L221.6 25.2439C220.872 22.3418 218.662 19.8853 215.685 18.645C213.938 17.9225 211.397 17.5853 209.663 17.8262Z" fill="#80BA57"/>
<path d="M246.042 18.5844C245.949 18.6687 245.883 18.8613 245.896 19.0299L245.909 19.343L246.002 19.042C246.055 18.8734 246.214 18.7289 246.346 18.7048C246.769 18.6326 246.902 18.4399 246.531 18.4399C246.346 18.4399 246.134 18.5001 246.042 18.5844Z" fill="#80BA57"/>
<path d="M247.537 18.5604C247.577 18.6206 247.762 18.6808 247.947 18.6808C248.199 18.6808 248.265 18.741 248.278 19.0059C248.305 19.307 248.305 19.307 248.358 19.0661C248.397 18.9096 248.344 18.7049 248.265 18.6086C248.08 18.4159 247.405 18.3677 247.537 18.5604Z" fill="#80BA57"/>
<path d="M246.862 19.4518C246.743 19.7408 246.915 20.0298 247.167 19.9816C247.325 19.9576 247.405 19.8371 247.405 19.6445C247.405 19.2953 246.981 19.1508 246.862 19.4518ZM247.339 19.6445C247.339 19.7769 247.246 19.8853 247.14 19.8853C247.034 19.8853 246.942 19.7769 246.942 19.6445C246.942 19.512 247.034 19.4036 247.14 19.4036C247.246 19.4036 247.339 19.512 247.339 19.6445Z" fill="#80BA57"/>
<path d="M245.896 20.2464C245.883 20.6318 246.108 20.8485 246.531 20.8485C246.902 20.8485 246.77 20.6558 246.346 20.5836C246.214 20.5595 246.055 20.415 246.002 20.2464L245.909 19.9454L245.896 20.2464Z" fill="#80BA57"/>
<path d="M248.278 20.2227C248.278 20.3672 248.159 20.5237 248.04 20.5599C247.444 20.7405 247.405 20.7766 247.722 20.8248C248.119 20.885 248.437 20.596 248.358 20.2347C248.305 19.9457 248.305 19.9457 248.278 20.2227Z" fill="#80BA57"/>
<path d="M205.071 36.816C196.47 37.7071 189.39 41.9337 185.341 48.5928C184.785 49.508 184.798 49.5561 185.711 49.7006C186.915 49.8812 189.562 50.9289 191.11 51.832C192.328 52.5425 193.744 53.6262 195.014 54.8304C195.676 55.4445 196.602 56.2634 197.078 56.6487C198.322 57.612 199.553 59.1775 200.559 61.0078C201.829 63.3439 202.504 65.2706 203.205 68.5339C203.642 70.4967 203.788 73.194 203.536 74.338C202.928 77.1919 200.969 79.5641 198.23 80.7923L196.946 81.3583L196.787 82.2012C196.695 82.6588 196.602 84.152 196.562 85.5127C196.509 87.5959 196.536 88.2823 196.787 89.9079C197.184 92.6896 197.012 92.4126 198.362 92.3163C210.047 91.5456 218.291 90.1006 226.43 87.4032C228.256 86.8012 228.905 86.5362 231.273 85.4525C238.353 82.1892 242.416 78.0107 243.448 72.9291C244.295 68.7265 242.522 60.8753 239.478 55.3C237.281 51.2901 234.608 47.9064 231.3 44.9803C226.403 40.6332 220.157 37.8395 213.289 36.9123C211.291 36.6474 207.136 36.5992 205.071 36.816ZM207.969 44.9321C209.346 45.1127 210.748 45.5703 213.329 46.6782C216.915 48.2315 218.186 48.5446 220.779 48.5446C221.653 48.5446 222.341 48.5807 222.288 48.6169C222.248 48.653 221.692 48.8457 221.057 49.0504C218.609 49.797 217.392 50.5676 214.07 53.4697C211.675 55.5529 210.643 56.2393 208.83 56.9136C207.612 57.3592 205.918 57.7084 204.529 57.7806C200.466 58.0094 197.264 55.1435 197.264 51.254C197.264 48.5205 198.958 46.2567 201.697 45.3415C203.02 44.896 206.13 44.7033 207.969 44.9321ZM235.958 59.912C236.209 61.7423 236.064 64.6685 235.64 66.2459C235.111 68.1847 234.674 69.3045 233.827 70.882C232.544 73.2663 231.604 74.4584 229.553 76.3008C226.417 79.1185 222.275 81.0452 218.119 81.6112C216.029 81.9002 215.79 81.7918 217.431 81.3101C224.008 79.3473 229.156 75.5542 232.358 70.316C234.224 67.2574 235.508 62.6455 235.561 58.7801C235.574 58.0335 235.786 58.6356 235.958 59.912Z" fill="#80BA57"/>
<path d="M205.627 49.0142C204.926 49.2189 204.33 49.6524 203.96 50.2063C203.669 50.6639 203.602 50.9168 203.616 51.5189C203.629 52.41 204.026 53.0482 204.873 53.566C205.336 53.8429 205.561 53.8911 206.315 53.8911C207.069 53.8911 207.294 53.8429 207.758 53.566C208.049 53.3854 208.459 53.0241 208.657 52.7472C209.438 51.6634 208.988 50.0016 207.718 49.3273C207.096 48.9901 206.183 48.8577 205.627 49.0142Z" fill="#80BA57"/>
<path d="M182.019 52.5787C179.465 53.7828 177.533 55.0592 176.077 56.5163C175.243 57.3592 174.357 58.5152 174.463 58.6116C174.502 58.6477 174.793 58.5393 175.111 58.3828C176.527 57.6241 179.346 56.7451 182.164 56.1791C183.885 55.8299 187.908 55.3362 190.025 55.2158C191.745 55.1195 191.759 55.1917 189.972 54.12C188.291 53.0964 186.359 52.3378 184.493 51.9766L183.633 51.82L182.019 52.5787Z" fill="#80BA57"/>
<path d="M191.494 57.6478C191.243 57.6719 190.197 57.7442 189.178 57.8164C183.409 58.2138 178.764 59.2614 175.879 60.8148C174.939 61.3205 173.537 62.4766 173.232 62.9943C173.1 63.2231 173.126 63.2231 173.656 62.9221C174.622 62.3682 176.011 61.8383 177.401 61.5132C179.981 60.9111 184.494 60.598 187.551 60.8148L189.377 60.9352L190.528 59.8876C191.177 59.3096 192.129 58.575 192.659 58.262C193.175 57.9489 193.611 57.6599 193.611 57.6358C193.611 57.5756 192.288 57.5876 191.494 57.6478Z" fill="#80BA57"/>
<path d="M193.929 60.5017C193.135 61.0436 192.05 62.031 191.229 62.9703L190.779 63.4881L189.297 63.4038L187.815 63.3195L187.537 63.8252C186.889 64.9692 186.571 66.4263 186.505 68.5336C186.452 70.3519 186.465 70.6529 186.796 72.0618C187.947 77.1554 190.753 79.6481 194.776 79.1664C198.19 78.757 200.889 75.9151 200.889 72.7361C200.889 71.7969 200.36 68.5576 199.963 67.0886C199.315 64.6802 198.177 62.1033 197.118 60.6583L196.628 59.9839H195.662C194.736 59.9839 194.67 60.008 193.929 60.5017Z" fill="#80BA57"/>
<path d="M209.663 101.965C204.767 102.675 200.982 106.168 200.36 110.527C200.294 111.02 200.228 111.526 200.228 111.647C200.228 111.839 200.162 111.827 199.672 111.55C196.099 109.527 192.354 109.31 188.781 110.9C186.545 111.887 184.917 113.381 183.832 115.404C182.773 117.378 182.456 119.173 182.826 121.087C183.237 123.219 184.176 125.013 185.566 126.361L186.307 127.084L187.604 125.904C189.933 123.773 191.825 122.532 194.736 121.184C197.701 119.811 200.387 119.052 203.894 118.595C205.601 118.366 206.263 118.342 209.028 118.39C213.792 118.474 216.849 118.992 221.203 120.461C222.367 120.858 225.477 122.219 226.364 122.713C228.018 123.652 230.03 124.929 231.048 125.699C231.657 126.169 232.213 126.542 232.266 126.542C232.332 126.542 232.61 126.253 232.888 125.904C234.463 123.941 235.098 122.075 235.071 119.558C235.018 115.825 232.716 112.55 229.011 110.9C226.92 109.961 225.517 109.768 222.275 109.961L221.759 109.985L221.6 109.383C220.872 106.481 218.662 104.024 215.685 102.784C213.938 102.061 211.397 101.724 209.663 101.965Z" fill="#80BA57"/>
<path d="M246.042 102.724C245.949 102.808 245.883 103.001 245.896 103.169L245.909 103.482L246.002 103.181C246.055 103.013 246.214 102.868 246.346 102.844C246.769 102.772 246.902 102.579 246.531 102.579C246.346 102.579 246.134 102.639 246.042 102.724Z" fill="#80BA57"/>
<path d="M247.537 102.699C247.577 102.759 247.762 102.82 247.947 102.82C248.199 102.82 248.265 102.88 248.278 103.145C248.305 103.446 248.305 103.446 248.358 103.205C248.397 103.048 248.344 102.844 248.265 102.747C248.08 102.555 247.405 102.507 247.537 102.699Z" fill="#80BA57"/>
<path d="M246.862 103.591C246.743 103.88 246.915 104.169 247.167 104.12C247.325 104.096 247.405 103.976 247.405 103.783C247.405 103.434 246.981 103.29 246.862 103.591ZM247.339 103.783C247.339 103.916 247.246 104.024 247.14 104.024C247.034 104.024 246.942 103.916 246.942 103.783C246.942 103.651 247.034 103.542 247.14 103.542C247.246 103.542 247.339 103.651 247.339 103.783Z" fill="#80BA57"/>
<path d="M245.896 104.385C245.883 104.771 246.108 104.987 246.531 104.987C246.902 104.987 246.77 104.795 246.346 104.722C246.214 104.698 246.055 104.554 246.002 104.385L245.909 104.084L245.896 104.385Z" fill="#80BA57"/>
<path d="M248.278 104.361C248.278 104.506 248.159 104.663 248.04 104.699C247.444 104.879 247.405 104.915 247.722 104.964C248.119 105.024 248.437 104.735 248.358 104.374C248.305 104.085 248.305 104.085 248.278 104.361Z" fill="#80BA57"/>
<path d="M205.071 120.955C196.47 121.846 189.39 126.073 185.341 132.732C184.785 133.647 184.798 133.695 185.711 133.839C186.915 134.02 189.562 135.068 191.11 135.971C192.328 136.681 193.744 137.765 195.014 138.969C195.676 139.583 196.602 140.402 197.078 140.787C198.322 141.751 199.553 143.316 200.559 145.147C201.829 147.483 202.504 149.409 203.205 152.673C203.642 154.635 203.788 157.333 203.536 158.477C202.928 161.331 200.969 163.703 198.23 164.931L196.946 165.497L196.787 166.34C196.695 166.798 196.602 168.291 196.562 169.651C196.509 171.735 196.536 172.421 196.787 174.047C197.184 176.828 197.012 176.551 198.362 176.455C210.047 175.684 218.291 174.239 226.43 171.542C228.256 170.94 228.905 170.675 231.273 169.591C238.353 166.328 242.416 162.149 243.448 157.068C244.295 152.865 242.522 145.014 239.478 139.439C237.281 135.429 234.608 132.045 231.3 129.119C226.403 124.772 220.157 121.978 213.289 121.051C211.291 120.786 207.136 120.738 205.071 120.955ZM207.969 129.071C209.346 129.252 210.748 129.709 213.329 130.817C216.915 132.37 218.186 132.683 220.779 132.683C221.653 132.683 222.341 132.72 222.288 132.756C222.248 132.792 221.692 132.984 221.057 133.189C218.609 133.936 217.392 134.706 214.07 137.608C211.675 139.692 210.643 140.378 208.83 141.052C207.612 141.498 205.918 141.847 204.529 141.919C200.466 142.148 197.264 139.282 197.264 135.393C197.264 132.659 198.958 130.395 201.697 129.48C203.02 129.035 206.13 128.842 207.969 129.071ZM235.958 144.051C236.209 145.881 236.064 148.807 235.64 150.385C235.111 152.323 234.674 153.443 233.827 155.021C232.544 157.405 231.604 158.597 229.553 160.44C226.417 163.257 222.275 165.184 218.119 165.75C216.029 166.039 215.79 165.931 217.431 165.449C224.008 163.486 229.156 159.693 232.358 154.455C234.224 151.396 235.508 146.784 235.561 142.919C235.574 142.172 235.786 142.774 235.958 144.051Z" fill="#80BA57"/>
<path d="M205.627 133.153C204.926 133.358 204.33 133.791 203.96 134.345C203.669 134.803 203.602 135.056 203.616 135.658C203.629 136.549 204.026 137.187 204.873 137.705C205.336 137.982 205.561 138.03 206.315 138.03C207.069 138.03 207.294 137.982 207.758 137.705C208.049 137.524 208.459 137.163 208.657 136.886C209.438 135.802 208.988 134.14 207.718 133.466C207.096 133.129 206.183 132.996 205.627 133.153Z" fill="#80BA57"/>
<path d="M182.019 136.717C179.465 137.922 177.533 139.198 176.077 140.655C175.243 141.498 174.357 142.654 174.463 142.75C174.502 142.786 174.793 142.678 175.111 142.522C176.527 141.763 179.346 140.884 182.164 140.318C183.885 139.969 187.908 139.475 190.025 139.355C191.745 139.258 191.759 139.331 189.972 138.259C188.291 137.235 186.359 136.477 184.493 136.115L183.633 135.959L182.019 136.717Z" fill="#80BA57"/>
<path d="M191.494 141.787C191.243 141.811 190.197 141.883 189.178 141.955C183.409 142.353 178.764 143.4 175.879 144.954C174.939 145.46 173.537 146.616 173.232 147.133C173.1 147.362 173.126 147.362 173.656 147.061C174.622 146.507 176.011 145.977 177.401 145.652C179.981 145.05 184.494 144.737 187.551 144.954L189.377 145.074L190.528 144.027C191.177 143.449 192.129 142.714 192.659 142.401C193.175 142.088 193.611 141.799 193.611 141.775C193.611 141.715 192.288 141.727 191.494 141.787Z" fill="#80BA57"/>
<path d="M193.929 144.641C193.135 145.182 192.05 146.17 191.229 147.109L190.779 147.627L189.297 147.543L187.815 147.458L187.537 147.964C186.889 149.108 186.571 150.565 186.505 152.672C186.452 154.491 186.465 154.792 186.796 156.201C187.947 161.294 190.753 163.787 194.776 163.305C198.19 162.896 200.889 160.054 200.889 156.875C200.889 155.936 200.36 152.696 199.963 151.227C199.315 148.819 198.177 146.242 197.118 144.797L196.628 144.123H195.662C194.736 144.123 194.67 144.147 193.929 144.641Z" fill="#80BA57"/>
<path d="M209.663 186.104C204.767 186.815 200.982 190.307 200.36 194.666C200.294 195.159 200.228 195.665 200.228 195.786C200.228 195.978 200.162 195.966 199.672 195.689C196.099 193.666 192.354 193.45 188.781 195.039C186.545 196.026 184.917 197.52 183.832 199.543C182.773 201.518 182.456 203.312 182.826 205.226C183.237 207.358 184.176 209.152 185.566 210.501L186.307 211.223L187.604 210.043C189.933 207.912 191.825 206.671 194.736 205.323C197.701 203.95 200.387 203.191 203.894 202.734C205.601 202.505 206.263 202.481 209.028 202.529C213.792 202.613 216.849 203.131 221.203 204.6C222.367 204.998 225.477 206.358 226.364 206.852C228.018 207.791 230.03 209.068 231.048 209.838C231.657 210.308 232.213 210.681 232.266 210.681C232.332 210.681 232.61 210.392 232.888 210.043C234.463 208.08 235.098 206.214 235.071 203.697C235.018 199.964 232.716 196.689 229.011 195.039C226.92 194.1 225.517 193.907 222.275 194.1L221.759 194.124L221.6 193.522C220.872 190.62 218.662 188.163 215.685 186.923C213.938 186.2 211.397 185.863 209.663 186.104Z" fill="#80BA57"/>
<path d="M246.042 186.863C245.949 186.947 245.883 187.14 245.896 187.308L245.909 187.621L246.002 187.32C246.055 187.152 246.214 187.007 246.346 186.983C246.769 186.911 246.902 186.718 246.531 186.718C246.346 186.718 246.134 186.778 246.042 186.863Z" fill="#80BA57"/>
<path d="M247.537 186.839C247.577 186.899 247.762 186.959 247.947 186.959C248.199 186.959 248.265 187.019 248.278 187.284C248.305 187.585 248.305 187.585 248.358 187.344C248.397 187.188 248.344 186.983 248.265 186.887C248.08 186.694 247.405 186.646 247.537 186.839Z" fill="#80BA57"/>
<path d="M246.862 187.73C246.743 188.019 246.915 188.308 247.167 188.26C247.325 188.236 247.405 188.115 247.405 187.922C247.405 187.573 246.981 187.429 246.862 187.73ZM247.339 187.922C247.339 188.055 247.246 188.163 247.14 188.163C247.034 188.163 246.942 188.055 246.942 187.922C246.942 187.79 247.034 187.682 247.14 187.682C247.246 187.682 247.339 187.79 247.339 187.922Z" fill="#80BA57"/>
<path d="M245.896 188.524C245.883 188.91 246.108 189.126 246.531 189.126C246.902 189.126 246.77 188.934 246.346 188.862C246.214 188.837 246.055 188.693 246.002 188.524L245.909 188.223L245.896 188.524Z" fill="#80BA57"/>
<path d="M248.278 188.501C248.278 188.645 248.159 188.802 248.04 188.838C247.444 189.018 247.405 189.055 247.722 189.103C248.119 189.163 248.437 188.874 248.358 188.513C248.305 188.224 248.305 188.224 248.278 188.501Z" fill="#80BA57"/>
<path d="M205.071 205.094C196.47 205.985 189.39 210.212 185.341 216.871C184.785 217.786 184.798 217.834 185.711 217.978C186.915 218.159 189.562 219.207 191.11 220.11C192.328 220.82 193.744 221.904 195.014 223.108C195.676 223.722 196.602 224.541 197.078 224.927C198.322 225.89 199.553 227.455 200.559 229.286C201.829 231.622 202.504 233.548 203.205 236.812C203.642 238.775 203.788 241.472 203.536 242.616C202.928 245.47 200.969 247.842 198.23 249.07L196.946 249.636L196.787 250.479C196.695 250.937 196.602 252.43 196.562 253.791C196.509 255.874 196.536 256.56 196.787 258.186C197.184 260.967 197.012 260.69 198.362 260.594C210.047 259.823 218.291 258.378 226.43 255.681C228.256 255.079 228.905 254.814 231.273 253.73C238.353 250.467 242.416 246.289 243.448 241.207C244.295 237.004 242.522 229.153 239.478 223.578C237.281 219.568 234.608 216.184 231.3 213.258C226.403 208.911 220.157 206.117 213.289 205.19C211.291 204.925 207.136 204.877 205.071 205.094ZM207.969 213.21C209.346 213.391 210.748 213.848 213.329 214.956C216.915 216.509 218.186 216.822 220.779 216.822C221.653 216.822 222.341 216.859 222.288 216.895C222.248 216.931 221.692 217.123 221.057 217.328C218.609 218.075 217.392 218.845 214.07 221.748C211.675 223.831 210.643 224.517 208.83 225.191C207.612 225.637 205.918 225.986 204.529 226.058C200.466 226.287 197.264 223.421 197.264 219.532C197.264 216.798 198.958 214.535 201.697 213.619C203.02 213.174 206.13 212.981 207.969 213.21ZM235.958 228.19C236.209 230.02 236.064 232.946 235.64 234.524C235.111 236.462 234.674 237.582 233.827 239.16C232.544 241.544 231.604 242.736 229.553 244.579C226.417 247.396 222.275 249.323 218.119 249.889C216.029 250.178 215.79 250.07 217.431 249.588C224.008 247.625 229.156 243.832 232.358 238.594C234.224 235.535 235.508 230.923 235.561 227.058C235.574 226.311 235.786 226.913 235.958 228.19Z" fill="#80BA57"/>
<path d="M205.627 217.292C204.926 217.497 204.33 217.93 203.96 218.484C203.669 218.942 203.602 219.195 203.616 219.797C203.629 220.688 204.026 221.326 204.873 221.844C205.336 222.121 205.561 222.169 206.315 222.169C207.069 222.169 207.294 222.121 207.758 221.844C208.049 221.663 208.459 221.302 208.657 221.025C209.438 219.941 208.988 218.28 207.718 217.605C207.096 217.268 206.183 217.136 205.627 217.292Z" fill="#80BA57"/>
<path d="M182.019 220.857C179.465 222.061 177.533 223.337 176.077 224.794C175.243 225.637 174.357 226.793 174.463 226.89C174.502 226.926 174.793 226.817 175.111 226.661C176.527 225.902 179.346 225.023 182.164 224.457C183.885 224.108 187.908 223.614 190.025 223.494C191.745 223.397 191.759 223.47 189.972 222.398C188.291 221.374 186.359 220.616 184.493 220.255L183.633 220.098L182.019 220.857Z" fill="#80BA57"/>
<path d="M191.494 225.926C191.243 225.95 190.197 226.022 189.178 226.095C183.409 226.492 178.764 227.54 175.879 229.093C174.939 229.599 173.537 230.755 173.232 231.273C173.1 231.501 173.126 231.501 173.656 231.2C174.622 230.646 176.011 230.117 177.401 229.791C179.981 229.189 184.494 228.876 187.551 229.093L189.377 229.213L190.528 228.166C191.177 227.588 192.129 226.853 192.659 226.54C193.175 226.227 193.611 225.938 193.611 225.914C193.611 225.854 192.288 225.866 191.494 225.926Z" fill="#80BA57"/>
<path d="M193.929 228.78C193.135 229.322 192.05 230.309 191.229 231.248L190.779 231.766L189.297 231.682L187.815 231.597L187.537 232.103C186.889 233.247 186.571 234.704 186.505 236.812C186.452 238.63 186.465 238.931 186.796 240.34C187.947 245.433 190.753 247.926 194.776 247.444C198.19 247.035 200.889 244.193 200.889 241.014C200.889 240.075 200.36 236.836 199.963 235.367C199.315 232.958 198.177 230.381 197.118 228.936L196.628 228.262H195.662C194.736 228.262 194.67 228.286 193.929 228.78Z" fill="#80BA57"/>
</svg>
