<svg width="278" height="278" viewBox="0 0 278 278" fill="none" xmlns="http://www.w3.org/2000/svg">
<rect width="277.601" height="277.601" fill="white"/>
<path d="M137.129 100.707C132.232 101.418 128.448 104.91 127.826 109.269C127.76 109.763 127.693 110.269 127.693 110.389C127.693 110.582 127.627 110.57 127.138 110.293C123.565 108.27 119.82 108.053 116.247 109.642C114.01 110.63 112.382 112.123 111.297 114.146C110.239 116.121 109.921 117.915 110.292 119.83C110.702 121.961 111.641 123.755 113.031 125.104L113.772 125.826L115.069 124.646C117.398 122.515 119.29 121.275 122.202 119.926C125.166 118.553 127.852 117.795 131.359 117.337C133.066 117.108 133.728 117.084 136.493 117.132C141.257 117.217 144.314 117.734 148.668 119.204C149.833 119.601 152.942 120.962 153.829 121.455C155.483 122.395 157.495 123.671 158.514 124.442C159.122 124.911 159.678 125.285 159.731 125.285C159.797 125.285 160.075 124.996 160.353 124.646C161.928 122.684 162.563 120.817 162.537 118.3C162.484 114.567 160.181 111.292 156.476 109.642C154.385 108.703 152.982 108.51 149.74 108.703L149.224 108.727L149.065 108.125C148.337 105.223 146.127 102.767 143.15 101.526C141.403 100.804 138.862 100.467 137.129 100.707Z" fill="#80BA57"/>
<path d="M173.507 101.466C173.414 101.55 173.348 101.743 173.361 101.911L173.375 102.224L173.467 101.923C173.52 101.755 173.679 101.61 173.811 101.586C174.235 101.514 174.367 101.321 173.997 101.321C173.811 101.321 173.6 101.381 173.507 101.466Z" fill="#80BA57"/>
<path d="M175.003 101.442C175.042 101.502 175.228 101.562 175.413 101.562C175.664 101.562 175.73 101.622 175.744 101.887C175.77 102.188 175.77 102.188 175.823 101.948C175.863 101.791 175.81 101.586 175.73 101.49C175.545 101.297 174.87 101.249 175.003 101.442Z" fill="#80BA57"/>
<path d="M174.328 102.333C174.209 102.622 174.381 102.911 174.632 102.863C174.791 102.839 174.87 102.718 174.87 102.526C174.87 102.176 174.447 102.032 174.328 102.333ZM174.804 102.526C174.804 102.658 174.712 102.767 174.606 102.767C174.5 102.767 174.407 102.658 174.407 102.526C174.407 102.393 174.5 102.285 174.606 102.285C174.712 102.285 174.804 102.393 174.804 102.526Z" fill="#80BA57"/>
<path d="M173.362 103.128C173.348 103.513 173.573 103.73 173.997 103.73C174.367 103.73 174.235 103.537 173.811 103.465C173.679 103.441 173.52 103.296 173.467 103.128L173.375 102.827L173.362 103.128Z" fill="#80BA57"/>
<path d="M175.744 103.104C175.744 103.248 175.625 103.405 175.505 103.441C174.91 103.622 174.87 103.658 175.188 103.706C175.585 103.766 175.902 103.477 175.823 103.116C175.77 102.827 175.77 102.827 175.744 103.104Z" fill="#80BA57"/>
<path d="M132.537 119.697C123.935 120.588 116.855 124.815 112.806 131.474C112.25 132.389 112.264 132.437 113.177 132.582C114.381 132.762 117.028 133.81 118.576 134.713C119.793 135.424 121.209 136.507 122.48 137.712C123.141 138.326 124.068 139.145 124.544 139.53C125.788 140.493 127.019 142.059 128.024 143.889C129.295 146.225 129.97 148.152 130.671 151.415C131.108 153.378 131.253 156.075 131.002 157.219C130.393 160.073 128.435 162.445 125.695 163.674L124.412 164.24L124.253 165.082C124.16 165.54 124.068 167.033 124.028 168.394C123.975 170.477 124.001 171.164 124.253 172.789C124.65 175.571 124.478 175.294 125.828 175.197C137.513 174.427 145.757 172.982 153.895 170.284C155.722 169.682 156.37 169.417 158.739 168.334C165.819 165.07 169.881 160.892 170.913 155.81C171.76 151.608 169.987 143.757 166.944 138.181C164.747 134.171 162.074 130.788 158.765 127.861C153.869 123.514 147.623 120.721 140.755 119.794C138.757 119.529 134.601 119.48 132.537 119.697ZM135.435 127.813C136.811 127.994 138.214 128.452 140.795 129.559C144.381 131.113 145.651 131.426 148.245 131.426C149.118 131.426 149.806 131.462 149.753 131.498C149.714 131.534 149.158 131.727 148.523 131.932C146.075 132.678 144.857 133.449 141.536 136.351C139.14 138.434 138.108 139.121 136.295 139.795C135.078 140.24 133.384 140.59 131.994 140.662C127.932 140.891 124.729 138.025 124.729 134.135C124.729 131.402 126.423 129.138 129.162 128.223C130.486 127.777 133.596 127.585 135.435 127.813ZM163.423 142.793C163.675 144.624 163.529 147.55 163.106 149.127C162.577 151.066 162.14 152.186 161.293 153.763C160.009 156.147 159.07 157.34 157.019 159.182C153.882 162 149.74 163.926 145.585 164.492C143.494 164.781 143.256 164.673 144.897 164.191C151.474 162.229 156.622 158.435 159.824 153.197C161.69 150.139 162.974 145.527 163.026 141.661C163.04 140.915 163.251 141.517 163.423 142.793Z" fill="#80BA57"/>
<path d="M133.093 131.896C132.391 132.1 131.796 132.534 131.425 133.088C131.134 133.545 131.068 133.798 131.081 134.4C131.094 135.291 131.491 135.93 132.338 136.447C132.801 136.724 133.026 136.773 133.781 136.773C134.535 136.773 134.76 136.724 135.223 136.447C135.514 136.267 135.925 135.906 136.123 135.629C136.904 134.545 136.454 132.883 135.183 132.209C134.562 131.872 133.648 131.739 133.093 131.896Z" fill="#80BA57"/>
<path d="M109.484 135.46C106.93 136.664 104.998 137.94 103.543 139.397C102.709 140.24 101.822 141.396 101.928 141.493C101.968 141.529 102.259 141.42 102.577 141.264C103.993 140.505 106.811 139.626 109.63 139.06C111.35 138.711 115.373 138.217 117.491 138.097C119.211 138.001 119.224 138.073 117.438 137.001C115.757 135.978 113.825 135.219 111.959 134.858L111.099 134.701L109.484 135.46Z" fill="#80BA57"/>
<path d="M118.959 140.529C118.708 140.553 117.662 140.626 116.644 140.698C110.874 141.095 106.229 142.143 103.344 143.696C102.405 144.202 101.002 145.358 100.697 145.876C100.565 146.104 100.592 146.104 101.121 145.803C102.087 145.25 103.476 144.72 104.866 144.395C107.446 143.792 111.959 143.479 115.016 143.696L116.842 143.817L117.993 142.769C118.642 142.191 119.595 141.456 120.124 141.143C120.64 140.83 121.077 140.541 121.077 140.517C121.077 140.457 119.753 140.469 118.959 140.529Z" fill="#80BA57"/>
<path d="M121.394 143.383C120.6 143.925 119.515 144.913 118.694 145.852L118.244 146.37L116.762 146.285L115.28 146.201L115.002 146.707C114.354 147.851 114.036 149.308 113.97 151.415C113.917 153.233 113.93 153.534 114.261 154.943C115.413 160.037 118.218 162.53 122.241 162.048C125.655 161.638 128.355 158.797 128.355 155.618C128.355 154.678 127.825 151.439 127.428 149.97C126.78 147.562 125.642 144.985 124.583 143.54L124.094 142.865H123.128C122.201 142.865 122.135 142.889 121.394 143.383Z" fill="#80BA57"/>
</svg>
