<svg width="278" height="278" viewBox="0 0 278 278" fill="none" xmlns="http://www.w3.org/2000/svg">
<rect width="277.601" height="277.601" transform="translate(0.39917)" fill="white"/>
<path d="M68.1273 17.4271C63.231 18.1376 59.4463 21.6297 58.8243 25.9888C58.7582 26.4825 58.692 26.9882 58.692 27.1087C58.692 27.3013 58.6258 27.2893 58.1362 27.0123C54.5632 24.9893 50.8182 24.7726 47.2452 26.3621C45.0088 27.3495 43.3811 28.8427 42.296 30.8657C41.2373 32.8405 40.9197 34.6347 41.2902 36.5494C41.7005 38.6808 42.64 40.475 44.0295 41.8236L44.7706 42.5461L46.0674 41.3661C48.3965 39.2347 50.2889 37.9944 53.2002 36.6457C56.1644 35.2729 58.8508 34.5143 62.3576 34.0567C64.0647 33.8279 64.7264 33.8039 67.4921 33.852C72.2561 33.9363 75.313 34.4541 79.6668 35.9232C80.8313 36.3206 83.9411 37.6813 84.8278 38.175C86.4819 39.1143 88.4934 40.3907 89.5124 41.1613C90.1211 41.631 90.6769 42.0043 90.7298 42.0043C90.796 42.0043 91.0739 41.7153 91.3518 41.3661C92.9265 39.4033 93.5617 37.5368 93.5353 35.0201C93.4823 31.2871 91.1797 28.0118 87.4744 26.3621C85.3836 25.4228 83.9808 25.2302 80.7387 25.4228L80.2226 25.4469L80.0638 24.8448C79.3359 21.9428 77.126 19.4863 74.1485 18.246C72.4017 17.5235 69.8609 17.1863 68.1273 17.4271Z" fill="#80BA57"/>
<path d="M104.506 18.1856C104.413 18.2699 104.347 18.4626 104.36 18.6312L104.373 18.9443L104.466 18.6432C104.519 18.4746 104.678 18.3301 104.81 18.3061C105.234 18.2338 105.366 18.0411 104.995 18.0411C104.81 18.0411 104.598 18.1014 104.506 18.1856Z" fill="#80BA57"/>
<path d="M106.001 18.1615C106.041 18.2217 106.226 18.2819 106.412 18.2819C106.663 18.2819 106.729 18.3421 106.742 18.6071C106.769 18.9081 106.769 18.9081 106.822 18.6673C106.861 18.5107 106.809 18.306 106.729 18.2097C106.544 18.017 105.869 17.9689 106.001 18.1615Z" fill="#80BA57"/>
<path d="M105.327 19.0528C105.208 19.3418 105.38 19.6308 105.631 19.5826C105.79 19.5585 105.869 19.4381 105.869 19.2454C105.869 18.8962 105.446 18.7517 105.327 19.0528ZM105.803 19.2454C105.803 19.3779 105.71 19.4863 105.605 19.4863C105.499 19.4863 105.406 19.3779 105.406 19.2454C105.406 19.113 105.499 19.0046 105.605 19.0046C105.71 19.0046 105.803 19.113 105.803 19.2454Z" fill="#80BA57"/>
<path d="M104.36 19.8476C104.347 20.2329 104.572 20.4496 104.996 20.4496C105.366 20.4496 105.234 20.257 104.81 20.1847C104.678 20.1606 104.519 20.0161 104.466 19.8476L104.374 19.5465L104.36 19.8476Z" fill="#80BA57"/>
<path d="M106.742 19.8237C106.742 19.9682 106.623 20.1247 106.504 20.1608C105.909 20.3415 105.869 20.3776 106.186 20.4257C106.583 20.486 106.901 20.197 106.822 19.8357C106.769 19.5467 106.769 19.5467 106.742 19.8237Z" fill="#80BA57"/>
<path d="M63.5355 36.4169C54.9338 37.308 47.854 41.5346 43.8046 48.1937C43.2488 49.1088 43.2621 49.157 44.1752 49.3015C45.3794 49.4821 48.0261 50.5298 49.5743 51.4329C50.7918 52.1434 52.2078 53.2271 53.4782 54.4313C54.1398 55.0454 55.0662 55.8643 55.5426 56.2496C56.7865 57.2129 58.0172 58.7783 59.0229 60.6087C60.2933 62.9448 60.9682 64.8715 61.6696 68.1348C62.1063 70.0976 62.2518 72.7949 62.0004 73.9389C61.3917 76.7928 59.4332 79.165 56.6939 80.3932L55.4102 80.9592L55.2514 81.8021C55.1588 82.2597 55.0662 83.7529 55.0265 85.1136C54.9735 87.1968 55 87.8832 55.2514 89.5088C55.6484 92.2904 55.4764 92.0135 56.8262 91.9172C68.5112 91.1465 76.7555 89.7015 84.894 87.0041C86.7202 86.402 87.3686 86.1371 89.7374 85.0534C96.8172 81.7901 100.88 77.6116 101.912 72.53C102.759 68.3274 100.986 60.4762 97.942 54.9009C95.7453 50.891 93.0722 47.5073 89.7639 44.5812C84.8675 40.2341 78.6214 37.4404 71.7534 36.5132C69.7551 36.2483 65.5999 36.2001 63.5355 36.4169ZM66.4336 44.533C67.8098 44.7136 69.2126 45.1712 71.7931 46.279C75.3793 47.8324 76.6497 48.1455 79.2434 48.1455C80.1168 48.1455 80.8049 48.1816 80.752 48.2178C80.7123 48.2539 80.1565 48.4466 79.5213 48.6513C77.0731 49.3978 75.8557 50.1685 72.5341 53.0706C70.1389 55.1538 69.1067 55.8402 67.2937 56.5145C66.0763 56.96 64.3824 57.3093 62.9929 57.3815C58.9303 57.6103 55.7278 54.7444 55.7278 50.8549C55.7278 48.1214 57.4217 45.8576 60.161 44.9424C61.4843 44.4969 64.5941 44.3042 66.4336 44.533ZM94.422 59.5129C94.6734 61.3432 94.5279 64.2694 94.1044 65.8468C93.5751 67.7856 93.1384 68.9054 92.2914 70.4829C91.0078 72.8672 90.0682 74.0593 88.0171 75.9017C84.8808 78.7194 80.7388 80.6461 76.5835 81.2121C74.4926 81.5011 74.2544 81.3927 75.8954 80.911C82.4723 78.9482 87.6201 75.1551 90.8225 69.9169C92.6884 66.8583 93.9721 62.2464 94.025 58.381C94.0382 57.6344 94.25 58.2365 94.422 59.5129Z" fill="#80BA57"/>
<path d="M64.0912 48.6154C63.3898 48.8201 62.7943 49.2536 62.4238 49.8075C62.1326 50.2651 62.0665 50.5179 62.0797 51.12C62.0929 52.0111 62.4899 52.6493 63.3369 53.1671C63.8 53.4441 64.025 53.4922 64.7793 53.4922C65.5336 53.4922 65.7586 53.4441 66.2217 53.1671C66.5129 52.9865 66.9231 52.6252 67.1216 52.3483C67.9024 51.2645 67.4524 49.6028 66.182 48.9284C65.5601 48.5913 64.647 48.4588 64.0912 48.6154Z" fill="#80BA57"/>
<path d="M40.4829 52.1796C37.9289 53.3838 35.9969 54.6602 34.5412 56.1172C33.7075 56.9602 32.8209 58.1162 32.9267 58.2125C32.9664 58.2486 33.2576 58.1403 33.5752 57.9837C34.9911 57.2251 37.8098 56.346 40.6285 55.7801C42.3488 55.4309 46.3718 54.9372 48.4891 54.8167C50.2094 54.7204 50.2226 54.7927 48.4361 53.7209C46.7555 52.6974 44.8235 51.9388 42.9576 51.5775L42.0974 51.421L40.4829 52.1796Z" fill="#80BA57"/>
<path d="M49.9583 57.2491C49.7068 57.2732 48.6614 57.3454 47.6424 57.4177C41.8727 57.815 37.2278 58.8627 34.343 60.4161C33.4034 60.9218 32.0007 62.0778 31.6963 62.5956C31.564 62.8244 31.5904 62.8244 32.1198 62.5234C33.0858 61.9694 34.4753 61.4396 35.8648 61.1145C38.4453 60.5124 42.9578 60.1993 46.0147 60.4161L47.8409 60.5365L48.9922 59.4888C49.6407 58.9108 50.5935 58.1763 51.1228 57.8632C51.6389 57.5501 52.0756 57.2611 52.0756 57.237C52.0756 57.1768 50.7523 57.1889 49.9583 57.2491Z" fill="#80BA57"/>
<path d="M52.393 60.1029C51.599 60.6447 50.5139 61.6322 49.6934 62.5714L49.2435 63.0892L47.7614 63.0049L46.2792 62.9206L46.0013 63.4264C45.3529 64.5703 45.0353 66.0274 44.9691 68.1347C44.9162 69.953 44.9294 70.254 45.2603 71.6629C46.4116 76.7566 49.217 79.2492 53.24 78.7675C56.6541 78.3581 59.3537 75.5163 59.3537 72.3373C59.3537 71.398 58.8244 68.1588 58.4274 66.6897C57.779 64.2813 56.6409 61.7044 55.5822 60.2594L55.0926 59.5851H54.1266C53.2003 59.5851 53.1341 59.6092 52.393 60.1029Z" fill="#80BA57"/>
<path d="M209.264 185.705C204.368 186.415 200.583 189.908 199.961 194.267C199.895 194.76 199.829 195.266 199.829 195.386C199.829 195.579 199.762 195.567 199.273 195.29C195.7 193.267 191.955 193.05 188.382 194.64C186.145 195.627 184.518 197.12 183.433 199.144C182.374 201.118 182.056 202.913 182.427 204.827C182.837 206.959 183.777 208.753 185.166 210.101L185.907 210.824L187.204 209.644C189.533 207.513 191.425 206.272 194.337 204.924C197.301 203.551 199.987 202.792 203.494 202.335C205.201 202.106 205.863 202.082 208.629 202.13C213.393 202.214 216.45 202.732 220.803 204.201C221.968 204.598 225.078 205.959 225.964 206.453C227.619 207.392 229.63 208.669 230.649 209.439C231.258 209.909 231.813 210.282 231.866 210.282C231.933 210.282 232.21 209.993 232.488 209.644C234.063 207.681 234.698 205.815 234.672 203.298C234.619 199.565 232.316 196.29 228.611 194.64C226.52 193.701 225.117 193.508 221.875 193.701L221.359 193.725L221.2 193.123C220.473 190.221 218.263 187.764 215.285 186.524C213.538 185.801 210.998 185.464 209.264 185.705Z" fill="#80BA57"/>
<path d="M245.642 186.463C245.549 186.547 245.483 186.74 245.496 186.909L245.51 187.222L245.602 186.921C245.655 186.752 245.814 186.608 245.946 186.584C246.37 186.511 246.502 186.319 246.132 186.319C245.946 186.319 245.735 186.379 245.642 186.463Z" fill="#80BA57"/>
<path d="M247.138 186.439C247.178 186.5 247.363 186.56 247.548 186.56C247.8 186.56 247.866 186.62 247.879 186.885C247.905 187.186 247.905 187.186 247.958 186.945C247.998 186.789 247.945 186.584 247.866 186.487C247.68 186.295 247.006 186.247 247.138 186.439Z" fill="#80BA57"/>
<path d="M246.463 187.33C246.344 187.619 246.516 187.908 246.767 187.86C246.926 187.836 247.005 187.716 247.005 187.523C247.005 187.174 246.582 187.029 246.463 187.33ZM246.939 187.523C246.939 187.656 246.846 187.764 246.741 187.764C246.635 187.764 246.542 187.656 246.542 187.523C246.542 187.391 246.635 187.282 246.741 187.282C246.846 187.282 246.939 187.391 246.939 187.523Z" fill="#80BA57"/>
<path d="M245.497 188.125C245.483 188.511 245.708 188.727 246.132 188.727C246.502 188.727 246.37 188.535 245.947 188.462C245.814 188.438 245.655 188.294 245.603 188.125L245.51 187.824L245.497 188.125Z" fill="#80BA57"/>
<path d="M247.879 188.101C247.879 188.246 247.76 188.402 247.641 188.439C247.045 188.619 247.005 188.655 247.323 188.703C247.72 188.764 248.038 188.475 247.958 188.113C247.905 187.824 247.905 187.824 247.879 188.101Z" fill="#80BA57"/>
<path d="M204.672 204.695C196.07 205.586 188.991 209.812 184.941 216.471C184.385 217.387 184.399 217.435 185.312 217.579C186.516 217.76 189.163 218.808 190.711 219.711C191.928 220.421 193.344 221.505 194.615 222.709C195.276 223.323 196.203 224.142 196.679 224.527C197.923 225.491 199.154 227.056 200.16 228.886C201.43 231.223 202.105 233.149 202.806 236.413C203.243 238.375 203.388 241.073 203.137 242.217C202.528 245.071 200.57 247.443 197.83 248.671L196.547 249.237L196.388 250.08C196.295 250.537 196.203 252.031 196.163 253.391C196.11 255.475 196.137 256.161 196.388 257.787C196.785 260.568 196.613 260.291 197.963 260.195C209.648 259.424 217.892 257.979 226.031 255.282C227.857 254.68 228.505 254.415 230.874 253.331C237.954 250.068 242.016 245.889 243.049 240.808C243.896 236.605 242.122 228.754 239.079 223.179C236.882 219.169 234.209 215.785 230.9 212.859C226.004 208.512 219.758 205.718 212.89 204.791C210.892 204.526 206.736 204.478 204.672 204.695ZM207.57 212.811C208.946 212.991 210.349 213.449 212.93 214.557C216.516 216.11 217.786 216.423 220.38 216.423C221.253 216.423 221.942 216.459 221.889 216.496C221.849 216.532 221.293 216.724 220.658 216.929C218.21 217.676 216.992 218.446 213.671 221.348C211.275 223.432 210.243 224.118 208.43 224.792C207.213 225.238 205.519 225.587 204.13 225.659C200.067 225.888 196.864 223.022 196.864 219.133C196.864 216.399 198.558 214.135 201.298 213.22C202.621 212.775 205.731 212.582 207.57 212.811ZM235.559 227.791C235.81 229.621 235.664 232.547 235.241 234.125C234.712 236.063 234.275 237.183 233.428 238.761C232.144 241.145 231.205 242.337 229.154 244.179C226.017 246.997 221.875 248.924 217.72 249.49C215.629 249.779 215.391 249.67 217.032 249.189C223.609 247.226 228.757 243.433 231.959 238.195C233.825 235.136 235.109 230.524 235.162 226.659C235.175 225.912 235.387 226.514 235.559 227.791Z" fill="#80BA57"/>
<path d="M205.228 216.893C204.526 217.098 203.931 217.531 203.56 218.085C203.269 218.543 203.203 218.796 203.216 219.398C203.229 220.289 203.626 220.927 204.473 221.445C204.936 221.722 205.161 221.77 205.916 221.77C206.67 221.77 206.895 221.722 207.358 221.445C207.649 221.264 208.059 220.903 208.258 220.626C209.039 219.542 208.589 217.881 207.318 217.206C206.696 216.869 205.783 216.737 205.228 216.893Z" fill="#80BA57"/>
<path d="M181.62 220.457C179.066 221.661 177.133 222.938 175.678 224.395C174.844 225.238 173.957 226.394 174.063 226.49C174.103 226.526 174.394 226.418 174.712 226.261C176.128 225.503 178.946 224.624 181.765 224.058C183.485 223.708 187.508 223.215 189.626 223.094C191.346 222.998 191.359 223.07 189.573 221.999C187.892 220.975 185.96 220.216 184.094 219.855L183.234 219.699L181.62 220.457Z" fill="#80BA57"/>
<path d="M191.094 225.527C190.843 225.551 189.798 225.623 188.779 225.696C183.009 226.093 178.364 227.141 175.479 228.694C174.54 229.2 173.137 230.356 172.833 230.873C172.7 231.102 172.727 231.102 173.256 230.801C174.222 230.247 175.612 229.717 177.001 229.392C179.582 228.79 184.094 228.477 187.151 228.694L188.977 228.814L190.128 227.767C190.777 227.189 191.73 226.454 192.259 226.141C192.775 225.828 193.212 225.539 193.212 225.515C193.212 225.455 191.888 225.467 191.094 225.527Z" fill="#80BA57"/>
<path d="M193.529 228.381C192.735 228.923 191.65 229.91 190.83 230.849L190.38 231.367L188.898 231.283L187.415 231.198L187.138 231.704C186.489 232.848 186.172 234.305 186.105 236.412C186.052 238.231 186.066 238.532 186.397 239.941C187.548 245.034 190.353 247.527 194.376 247.045C197.79 246.636 200.49 243.794 200.49 240.615C200.49 239.676 199.961 236.437 199.564 234.967C198.915 232.559 197.777 229.982 196.718 228.537L196.229 227.863H195.263C194.336 227.863 194.27 227.887 193.529 228.381Z" fill="#80BA57"/>
</svg>
