<svg width="279" height="278" viewBox="0 0 279 278" fill="none" xmlns="http://www.w3.org/2000/svg">
<rect width="277.601" height="277.601" transform="translate(0.798828)" fill="white"/>
<path d="M68.5272 185.705C63.6309 186.415 59.8462 189.908 59.2242 194.267C59.1581 194.76 59.0919 195.266 59.0919 195.386C59.0919 195.579 59.0257 195.567 58.5361 195.29C54.9631 193.267 51.2181 193.05 47.6451 194.64C45.4087 195.627 43.781 197.12 42.6959 199.144C41.6372 201.118 41.3196 202.913 41.6901 204.827C42.1004 206.959 43.0399 208.753 44.4294 210.101L45.1705 210.824L46.4673 209.644C48.7964 207.513 50.6888 206.272 53.6001 204.924C56.5643 203.551 59.2507 202.792 62.7575 202.335C64.4646 202.106 65.1263 202.082 67.8921 202.13C72.656 202.214 75.7129 202.732 80.0667 204.201C81.2312 204.598 84.341 205.959 85.2277 206.453C86.8818 207.392 88.8933 208.669 89.9123 209.439C90.521 209.909 91.0768 210.282 91.1297 210.282C91.1959 210.282 91.4738 209.993 91.7517 209.644C93.3264 207.681 93.9616 205.815 93.9352 203.298C93.8822 199.565 91.5796 196.29 87.8743 194.64C85.7835 193.701 84.3807 193.508 81.1386 193.701L80.6225 193.725L80.4637 193.123C79.7358 190.221 77.5259 187.764 74.5484 186.524C72.8016 185.801 70.2608 185.464 68.5272 185.705Z" fill="#80BA57"/>
<path d="M104.905 186.463C104.813 186.547 104.747 186.74 104.76 186.909L104.773 187.222L104.866 186.921C104.919 186.752 105.077 186.608 105.21 186.584C105.633 186.511 105.765 186.319 105.395 186.319C105.21 186.319 104.998 186.379 104.905 186.463Z" fill="#80BA57"/>
<path d="M106.401 186.439C106.441 186.5 106.626 186.56 106.811 186.56C107.063 186.56 107.129 186.62 107.142 186.885C107.168 187.186 107.168 187.186 107.221 186.945C107.261 186.789 107.208 186.584 107.129 186.487C106.943 186.295 106.269 186.247 106.401 186.439Z" fill="#80BA57"/>
<path d="M105.726 187.33C105.607 187.619 105.779 187.908 106.03 187.86C106.189 187.836 106.269 187.716 106.269 187.523C106.269 187.174 105.845 187.029 105.726 187.33ZM106.202 187.523C106.202 187.656 106.11 187.764 106.004 187.764C105.898 187.764 105.805 187.656 105.805 187.523C105.805 187.391 105.898 187.282 106.004 187.282C106.11 187.282 106.202 187.391 106.202 187.523Z" fill="#80BA57"/>
<path d="M104.76 188.125C104.747 188.511 104.972 188.727 105.395 188.727C105.766 188.727 105.633 188.535 105.21 188.462C105.078 188.438 104.919 188.294 104.866 188.125L104.773 187.824L104.76 188.125Z" fill="#80BA57"/>
<path d="M107.142 188.101C107.142 188.246 107.023 188.402 106.904 188.439C106.308 188.619 106.269 188.655 106.586 188.703C106.983 188.764 107.301 188.475 107.222 188.113C107.169 187.824 107.169 187.824 107.142 188.101Z" fill="#80BA57"/>
<path d="M63.9354 204.695C55.3337 205.586 48.2539 209.812 44.2045 216.471C43.6487 217.387 43.662 217.435 44.5751 217.579C45.7793 217.76 48.426 218.808 49.9742 219.711C51.1917 220.421 52.6077 221.505 53.8781 222.709C54.5397 223.323 55.4661 224.142 55.9425 224.527C57.1864 225.491 58.4171 227.056 59.4228 228.886C60.6932 231.223 61.3681 233.149 62.0695 236.413C62.5062 238.375 62.6517 241.073 62.4003 242.217C61.7916 245.071 59.8331 247.443 57.0938 248.671L55.8101 249.237L55.6513 250.08C55.5587 250.537 55.4661 252.031 55.4264 253.391C55.3734 255.475 55.3999 256.161 55.6513 257.787C56.0483 260.568 55.8763 260.291 57.2261 260.195C68.9111 259.424 77.1554 257.979 85.2939 255.282C87.1201 254.68 87.7685 254.415 90.1373 253.331C97.2171 250.068 101.28 245.889 102.312 240.808C103.159 236.605 101.386 228.754 98.3419 223.179C96.1452 219.169 93.4721 215.785 90.1638 212.859C85.2675 208.512 79.0213 205.718 72.1533 204.791C70.155 204.526 65.9998 204.478 63.9354 204.695ZM66.8335 212.811C68.2097 212.991 69.6125 213.449 72.193 214.557C75.7792 216.11 77.0496 216.423 79.6433 216.423C80.5167 216.423 81.2048 216.459 81.1519 216.496C81.1122 216.532 80.5564 216.724 79.9212 216.929C77.473 217.676 76.2556 218.446 72.934 221.348C70.5388 223.432 69.5066 224.118 67.6936 224.792C66.4762 225.238 64.7823 225.587 63.3928 225.659C59.3302 225.888 56.1277 223.022 56.1277 219.133C56.1277 216.399 57.8216 214.135 60.5609 213.22C61.8842 212.775 64.994 212.582 66.8335 212.811ZM94.8219 227.791C95.0733 229.621 94.9278 232.547 94.5043 234.125C93.975 236.063 93.5383 237.183 92.6913 238.761C91.4077 241.145 90.4681 242.337 88.417 244.179C85.2807 246.997 81.1387 248.924 76.9834 249.49C74.8925 249.779 74.6543 249.67 76.2953 249.189C82.8722 247.226 88.02 243.433 91.2224 238.195C93.0883 235.136 94.372 230.524 94.4249 226.659C94.4381 225.912 94.6499 226.514 94.8219 227.791Z" fill="#80BA57"/>
<path d="M64.4908 216.893C63.7895 217.098 63.194 217.531 62.8234 218.085C62.5323 218.543 62.4661 218.796 62.4794 219.398C62.4926 220.289 62.8896 220.927 63.7365 221.445C64.1997 221.722 64.4247 221.77 65.179 221.77C65.9333 221.77 66.1582 221.722 66.6214 221.445C66.9125 221.264 67.3227 220.903 67.5212 220.626C68.302 219.542 67.8521 217.881 66.5817 217.206C65.9597 216.869 65.0466 216.737 64.4908 216.893Z" fill="#80BA57"/>
<path d="M40.8828 220.457C38.3288 221.661 36.3968 222.938 34.9411 224.395C34.1074 225.238 33.2208 226.394 33.3266 226.49C33.3663 226.526 33.6575 226.418 33.9751 226.261C35.391 225.503 38.2097 224.624 41.0284 224.058C42.7487 223.708 46.7717 223.215 48.889 223.094C50.6093 222.998 50.6225 223.07 48.836 221.999C47.1554 220.975 45.2234 220.216 43.3575 219.855L42.4973 219.699L40.8828 220.457Z" fill="#80BA57"/>
<path d="M50.3578 225.527C50.1064 225.551 49.0609 225.623 48.042 225.696C42.2722 226.093 37.6274 227.141 34.7425 228.694C33.8029 229.2 32.4002 230.356 32.0958 230.873C31.9635 231.102 31.99 231.102 32.5193 230.801C33.4853 230.247 34.8748 229.717 36.2643 229.392C38.8448 228.79 43.3574 228.477 46.4143 228.694L48.2405 228.814L49.3918 227.767C50.0402 227.189 50.993 226.454 51.5223 226.141C52.0384 225.828 52.4751 225.539 52.4751 225.515C52.4751 225.455 51.1518 225.467 50.3578 225.527Z" fill="#80BA57"/>
<path d="M52.7926 228.381C51.9986 228.923 50.9134 229.91 50.093 230.849L49.643 231.367L48.1609 231.283L46.6788 231.198L46.4009 231.704C45.7524 232.848 45.4348 234.305 45.3687 236.412C45.3157 238.231 45.329 238.532 45.6598 239.941C46.8111 245.034 49.6166 247.527 53.6395 247.045C57.0537 246.636 59.7533 243.794 59.7533 240.615C59.7533 239.676 59.2239 236.437 58.8269 234.967C58.1785 232.559 57.0404 229.982 55.9818 228.537L55.4921 227.863H54.5261C53.5998 227.863 53.5336 227.887 52.7926 228.381Z" fill="#80BA57"/>
<path d="M209.663 17.4271C204.767 18.1376 200.982 21.6297 200.36 25.9888C200.294 26.4825 200.228 26.9882 200.228 27.1087C200.228 27.3013 200.162 27.2893 199.672 27.0123C196.099 24.9893 192.354 24.7726 188.781 26.3621C186.545 27.3495 184.917 28.8427 183.832 30.8657C182.773 32.8405 182.456 34.6347 182.826 36.5494C183.237 38.6808 184.176 40.475 185.566 41.8236L186.307 42.5461L187.604 41.3661C189.933 39.2347 191.825 37.9944 194.736 36.6457C197.701 35.2729 200.387 34.5143 203.894 34.0567C205.601 33.8279 206.263 33.8039 209.028 33.852C213.792 33.9363 216.849 34.4541 221.203 35.9232C222.367 36.3206 225.477 37.6813 226.364 38.175C228.018 39.1143 230.03 40.3907 231.048 41.1613C231.657 41.631 232.213 42.0043 232.266 42.0043C232.332 42.0043 232.61 41.7153 232.888 41.3661C234.463 39.4033 235.098 37.5368 235.071 35.0201C235.018 31.2871 232.716 28.0118 229.011 26.3621C226.92 25.4228 225.517 25.2302 222.275 25.4228L221.759 25.4469L221.6 24.8448C220.872 21.9428 218.662 19.4863 215.685 18.246C213.938 17.5235 211.397 17.1863 209.663 17.4271Z" fill="#80BA57"/>
<path d="M246.042 18.1856C245.949 18.2699 245.883 18.4626 245.896 18.6312L245.909 18.9443L246.002 18.6432C246.055 18.4746 246.214 18.3301 246.346 18.3061C246.769 18.2338 246.902 18.0411 246.531 18.0411C246.346 18.0411 246.134 18.1014 246.042 18.1856Z" fill="#80BA57"/>
<path d="M247.537 18.1615C247.577 18.2217 247.762 18.2819 247.947 18.2819C248.199 18.2819 248.265 18.3421 248.278 18.6071C248.305 18.9081 248.305 18.9081 248.358 18.6673C248.397 18.5107 248.344 18.306 248.265 18.2097C248.08 18.017 247.405 17.9689 247.537 18.1615Z" fill="#80BA57"/>
<path d="M246.862 19.0528C246.743 19.3418 246.915 19.6308 247.167 19.5826C247.325 19.5585 247.405 19.4381 247.405 19.2454C247.405 18.8962 246.981 18.7517 246.862 19.0528ZM247.339 19.2454C247.339 19.3779 247.246 19.4863 247.14 19.4863C247.034 19.4863 246.942 19.3779 246.942 19.2454C246.942 19.113 247.034 19.0046 247.14 19.0046C247.246 19.0046 247.339 19.113 247.339 19.2454Z" fill="#80BA57"/>
<path d="M245.896 19.8476C245.883 20.2329 246.108 20.4496 246.531 20.4496C246.902 20.4496 246.77 20.257 246.346 20.1847C246.214 20.1606 246.055 20.0161 246.002 19.8476L245.909 19.5465L245.896 19.8476Z" fill="#80BA57"/>
<path d="M248.278 19.8237C248.278 19.9682 248.159 20.1247 248.04 20.1608C247.444 20.3415 247.405 20.3776 247.722 20.4257C248.119 20.486 248.437 20.197 248.358 19.8357C248.305 19.5467 248.305 19.5467 248.278 19.8237Z" fill="#80BA57"/>
<path d="M205.071 36.4169C196.47 37.308 189.39 41.5346 185.341 48.1937C184.785 49.1088 184.798 49.157 185.711 49.3015C186.915 49.4821 189.562 50.5298 191.11 51.4329C192.328 52.1434 193.744 53.2271 195.014 54.4313C195.676 55.0454 196.602 55.8643 197.078 56.2496C198.322 57.2129 199.553 58.7783 200.559 60.6087C201.829 62.9448 202.504 64.8715 203.205 68.1348C203.642 70.0976 203.788 72.7949 203.536 73.9389C202.928 76.7928 200.969 79.165 198.23 80.3932L196.946 80.9592L196.787 81.8021C196.695 82.2597 196.602 83.7529 196.562 85.1136C196.509 87.1968 196.536 87.8832 196.787 89.5088C197.184 92.2904 197.012 92.0135 198.362 91.9172C210.047 91.1465 218.291 89.7015 226.43 87.0041C228.256 86.402 228.905 86.1371 231.273 85.0534C238.353 81.7901 242.416 77.6116 243.448 72.53C244.295 68.3274 242.522 60.4762 239.478 54.9009C237.281 50.891 234.608 47.5073 231.3 44.5812C226.403 40.2341 220.157 37.4404 213.289 36.5132C211.291 36.2483 207.136 36.2001 205.071 36.4169ZM207.969 44.533C209.346 44.7136 210.748 45.1712 213.329 46.279C216.915 47.8324 218.186 48.1455 220.779 48.1455C221.653 48.1455 222.341 48.1816 222.288 48.2178C222.248 48.2539 221.692 48.4466 221.057 48.6513C218.609 49.3978 217.392 50.1685 214.07 53.0706C211.675 55.1538 210.643 55.8402 208.83 56.5145C207.612 56.96 205.918 57.3093 204.529 57.3815C200.466 57.6103 197.264 54.7444 197.264 50.8549C197.264 48.1214 198.958 45.8576 201.697 44.9424C203.02 44.4969 206.13 44.3042 207.969 44.533ZM235.958 59.5129C236.209 61.3432 236.064 64.2694 235.64 65.8468C235.111 67.7856 234.674 68.9054 233.827 70.4829C232.544 72.8672 231.604 74.0593 229.553 75.9017C226.417 78.7194 222.275 80.6461 218.119 81.2121C216.029 81.5011 215.79 81.3927 217.431 80.911C224.008 78.9482 229.156 75.1551 232.358 69.9169C234.224 66.8583 235.508 62.2464 235.561 58.381C235.574 57.6344 235.786 58.2365 235.958 59.5129Z" fill="#80BA57"/>
<path d="M205.627 48.6154C204.926 48.8201 204.33 49.2536 203.96 49.8075C203.669 50.2651 203.602 50.5179 203.616 51.12C203.629 52.0111 204.026 52.6493 204.873 53.1671C205.336 53.4441 205.561 53.4922 206.315 53.4922C207.069 53.4922 207.294 53.4441 207.758 53.1671C208.049 52.9865 208.459 52.6252 208.657 52.3483C209.438 51.2645 208.988 49.6028 207.718 48.9284C207.096 48.5913 206.183 48.4588 205.627 48.6154Z" fill="#80BA57"/>
<path d="M182.019 52.1796C179.465 53.3838 177.533 54.6602 176.077 56.1172C175.243 56.9602 174.357 58.1162 174.463 58.2125C174.502 58.2486 174.793 58.1403 175.111 57.9837C176.527 57.2251 179.346 56.346 182.164 55.7801C183.885 55.4309 187.908 54.9372 190.025 54.8167C191.745 54.7204 191.759 54.7927 189.972 53.7209C188.291 52.6974 186.359 51.9388 184.493 51.5775L183.633 51.421L182.019 52.1796Z" fill="#80BA57"/>
<path d="M191.494 57.2491C191.243 57.2732 190.197 57.3454 189.178 57.4177C183.409 57.815 178.764 58.8627 175.879 60.4161C174.939 60.9218 173.537 62.0778 173.232 62.5956C173.1 62.8244 173.126 62.8244 173.656 62.5234C174.622 61.9694 176.011 61.4396 177.401 61.1145C179.981 60.5124 184.494 60.1993 187.551 60.4161L189.377 60.5365L190.528 59.4888C191.177 58.9108 192.129 58.1763 192.659 57.8632C193.175 57.5501 193.611 57.2611 193.611 57.237C193.611 57.1768 192.288 57.1889 191.494 57.2491Z" fill="#80BA57"/>
<path d="M193.929 60.1029C193.135 60.6447 192.05 61.6322 191.229 62.5714L190.779 63.0892L189.297 63.0049L187.815 62.9206L187.537 63.4264C186.889 64.5703 186.571 66.0274 186.505 68.1347C186.452 69.953 186.465 70.254 186.796 71.6629C187.947 76.7566 190.753 79.2492 194.776 78.7675C198.19 78.3581 200.889 75.5163 200.889 72.3373C200.889 71.398 200.36 68.1588 199.963 66.6897C199.315 64.2813 198.177 61.7044 197.118 60.2594L196.628 59.5851H195.662C194.736 59.5851 194.67 59.6092 193.929 60.1029Z" fill="#80BA57"/>
<path d="M141.397 100.707C136.501 101.418 132.716 104.91 132.094 109.269C132.028 109.763 131.962 110.269 131.962 110.389C131.962 110.582 131.896 110.57 131.406 110.293C127.833 108.27 124.088 108.053 120.515 109.642C118.279 110.63 116.651 112.123 115.566 114.146C114.507 116.121 114.19 117.915 114.56 119.83C114.97 121.961 115.91 123.755 117.299 125.104L118.04 125.826L119.337 124.646C121.666 122.515 123.559 121.275 126.47 119.926C129.434 118.553 132.121 117.795 135.628 117.337C137.335 117.108 137.996 117.084 140.762 117.132C145.526 117.217 148.583 117.734 152.937 119.204C154.101 119.601 157.211 120.962 158.098 121.455C159.752 122.395 161.763 123.671 162.782 124.442C163.391 124.911 163.947 125.285 164 125.285C164.066 125.285 164.344 124.996 164.622 124.646C166.196 122.684 166.832 120.817 166.805 118.3C166.752 114.567 164.45 111.292 160.744 109.642C158.653 108.703 157.251 108.51 154.009 108.703L153.492 108.727L153.334 108.125C152.606 105.223 150.396 102.767 147.418 101.526C145.672 100.804 143.131 100.467 141.397 100.707Z" fill="#80BA57"/>
<path d="M177.775 101.466C177.683 101.55 177.617 101.743 177.63 101.911L177.643 102.224L177.736 101.923C177.789 101.755 177.947 101.61 178.08 101.586C178.503 101.514 178.636 101.321 178.265 101.321C178.08 101.321 177.868 101.381 177.775 101.466Z" fill="#80BA57"/>
<path d="M179.271 101.442C179.311 101.502 179.496 101.562 179.681 101.562C179.933 101.562 179.999 101.622 180.012 101.887C180.039 102.188 180.039 102.188 180.091 101.948C180.131 101.791 180.078 101.586 179.999 101.49C179.814 101.297 179.139 101.249 179.271 101.442Z" fill="#80BA57"/>
<path d="M178.596 102.333C178.477 102.622 178.649 102.911 178.9 102.863C179.059 102.839 179.139 102.718 179.139 102.526C179.139 102.176 178.715 102.032 178.596 102.333ZM179.072 102.526C179.072 102.658 178.98 102.767 178.874 102.767C178.768 102.767 178.675 102.658 178.675 102.526C178.675 102.393 178.768 102.285 178.874 102.285C178.98 102.285 179.072 102.393 179.072 102.526Z" fill="#80BA57"/>
<path d="M177.63 103.128C177.617 103.513 177.842 103.73 178.265 103.73C178.636 103.73 178.503 103.537 178.08 103.465C177.948 103.441 177.789 103.296 177.736 103.128L177.643 102.827L177.63 103.128Z" fill="#80BA57"/>
<path d="M180.012 103.104C180.012 103.248 179.893 103.405 179.774 103.441C179.178 103.622 179.139 103.658 179.456 103.706C179.853 103.766 180.171 103.477 180.092 103.116C180.039 102.827 180.039 102.827 180.012 103.104Z" fill="#80BA57"/>
<path d="M136.805 119.697C128.204 120.588 121.124 124.815 117.075 131.474C116.519 132.389 116.532 132.437 117.445 132.582C118.649 132.762 121.296 133.81 122.844 134.713C124.062 135.424 125.478 136.507 126.748 137.712C127.41 138.326 128.336 139.145 128.812 139.53C130.056 140.493 131.287 142.059 132.293 143.889C133.563 146.225 134.238 148.152 134.939 151.415C135.376 153.378 135.522 156.075 135.27 157.219C134.662 160.073 132.703 162.445 129.964 163.674L128.68 164.24L128.521 165.082C128.429 165.54 128.336 167.033 128.296 168.394C128.243 170.477 128.27 171.164 128.521 172.789C128.918 175.571 128.746 175.294 130.096 175.197C141.781 174.427 150.025 172.982 158.164 170.284C159.99 169.682 160.639 169.417 163.007 168.334C170.087 165.07 174.15 160.892 175.182 155.81C176.029 151.608 174.256 143.757 171.212 138.181C169.015 134.171 166.342 130.788 163.034 127.861C158.137 123.514 151.891 120.721 145.023 119.794C143.025 119.529 138.87 119.48 136.805 119.697ZM139.703 127.813C141.08 127.994 142.482 128.452 145.063 129.559C148.649 131.113 149.92 131.426 152.513 131.426C153.387 131.426 154.075 131.462 154.022 131.498C153.982 131.534 153.426 131.727 152.791 131.932C150.343 132.678 149.126 133.449 145.804 136.351C143.409 138.434 142.377 139.121 140.564 139.795C139.346 140.24 137.652 140.59 136.263 140.662C132.2 140.891 128.998 138.025 128.998 134.135C128.998 131.402 130.692 129.138 133.431 128.223C134.754 127.777 137.864 127.585 139.703 127.813ZM167.692 142.793C167.943 144.624 167.798 147.55 167.374 149.127C166.845 151.066 166.408 152.186 165.561 153.763C164.278 156.147 163.338 157.34 161.287 159.182C158.151 162 154.009 163.926 149.853 164.492C147.763 164.781 147.524 164.673 149.165 164.191C155.742 162.229 160.89 158.435 164.092 153.197C165.958 150.139 167.242 145.527 167.295 141.661C167.308 140.915 167.52 141.517 167.692 142.793Z" fill="#80BA57"/>
<path d="M137.361 131.896C136.659 132.1 136.064 132.534 135.693 133.088C135.402 133.545 135.336 133.798 135.349 134.4C135.363 135.291 135.76 135.93 136.607 136.447C137.07 136.724 137.295 136.773 138.049 136.773C138.803 136.773 139.028 136.724 139.491 136.447C139.783 136.267 140.193 135.906 140.391 135.629C141.172 134.545 140.722 132.883 139.452 132.209C138.83 131.872 137.917 131.739 137.361 131.896Z" fill="#80BA57"/>
<path d="M113.753 135.46C111.199 136.664 109.267 137.94 107.811 139.397C106.977 140.24 106.091 141.396 106.197 141.493C106.236 141.529 106.527 141.42 106.845 141.264C108.261 140.505 111.08 139.626 113.898 139.06C115.619 138.711 119.642 138.217 121.759 138.097C123.479 138.001 123.493 138.073 121.706 137.001C120.025 135.978 118.093 135.219 116.227 134.858L115.367 134.701L113.753 135.46Z" fill="#80BA57"/>
<path d="M123.228 140.529C122.976 140.553 121.931 140.626 120.912 140.698C115.142 141.095 110.497 142.143 107.613 143.696C106.673 144.202 105.27 145.358 104.966 145.876C104.834 146.104 104.86 146.104 105.389 145.803C106.355 145.25 107.745 144.72 109.134 144.395C111.715 143.792 116.227 143.479 119.284 143.696L121.111 143.817L122.262 142.769C122.91 142.191 123.863 141.456 124.392 141.143C124.909 140.83 125.345 140.541 125.345 140.517C125.345 140.457 124.022 140.469 123.228 140.529Z" fill="#80BA57"/>
<path d="M125.663 143.383C124.869 143.925 123.783 144.913 122.963 145.852L122.513 146.37L121.031 146.285L119.549 146.201L119.271 146.707C118.622 147.851 118.305 149.308 118.239 151.415C118.186 153.233 118.199 153.534 118.53 154.943C119.681 160.037 122.487 162.53 126.509 162.048C129.924 161.638 132.623 158.797 132.623 155.618C132.623 154.678 132.094 151.439 131.697 149.97C131.049 147.562 129.91 144.985 128.852 143.54L128.362 142.865H127.396C126.47 142.865 126.404 142.889 125.663 143.383Z" fill="#80BA57"/>
</svg>
