<svg width="278" height="278" viewBox="0 0 278 278" fill="none" xmlns="http://www.w3.org/2000/svg">
<rect width="277.601" height="277.601" transform="translate(0.39917 0.39917)" fill="white"/>
<path d="M68.1273 17.8262C63.231 18.5366 59.4463 22.0287 58.8243 26.3878C58.7582 26.8815 58.692 27.3873 58.692 27.5077C58.692 27.7004 58.6258 27.6883 58.1362 27.4114C54.5632 25.3884 50.8182 25.1716 47.2452 26.7611C45.0088 27.7485 43.3811 29.2417 42.296 31.2647C41.2373 33.2396 40.9197 35.0338 41.2902 36.9484C41.7005 39.0798 42.64 40.874 44.0295 42.2227L44.7706 42.9452L46.0674 41.7651C48.3965 39.6337 50.2889 38.3934 53.2002 37.0447C56.1644 35.672 58.8508 34.9134 62.3576 34.4558C64.0647 34.227 64.7264 34.2029 67.4921 34.2511C72.2561 34.3354 75.313 34.8532 79.6668 36.3222C80.8313 36.7196 83.9411 38.0803 84.8278 38.574C86.4819 39.5133 88.4934 40.7897 89.5124 41.5604C90.1211 42.03 90.6769 42.4033 90.7298 42.4033C90.796 42.4033 91.0739 42.1143 91.3518 41.7651C92.9265 39.8023 93.5617 37.9358 93.5353 35.4191C93.4823 31.6862 91.1797 28.4108 87.4744 26.7611C85.3836 25.8219 83.9808 25.6292 80.7387 25.8219L80.2226 25.8459L80.0638 25.2439C79.3359 22.3418 77.126 19.8853 74.1485 18.645C72.4017 17.9225 69.8609 17.5853 68.1273 17.8262Z" fill="#80BA57"/>
<path d="M104.506 18.5844C104.413 18.6687 104.347 18.8613 104.36 19.0299L104.373 19.343L104.466 19.042C104.519 18.8734 104.678 18.7289 104.81 18.7048C105.234 18.6326 105.366 18.4399 104.995 18.4399C104.81 18.4399 104.598 18.5001 104.506 18.5844Z" fill="#80BA57"/>
<path d="M106.001 18.5604C106.041 18.6206 106.226 18.6808 106.412 18.6808C106.663 18.6808 106.729 18.741 106.742 19.0059C106.769 19.307 106.769 19.307 106.822 19.0661C106.861 18.9096 106.809 18.7049 106.729 18.6086C106.544 18.4159 105.869 18.3677 106.001 18.5604Z" fill="#80BA57"/>
<path d="M105.327 19.4518C105.208 19.7408 105.38 20.0298 105.631 19.9816C105.79 19.9576 105.869 19.8371 105.869 19.6445C105.869 19.2953 105.446 19.1508 105.327 19.4518ZM105.803 19.6445C105.803 19.7769 105.71 19.8853 105.605 19.8853C105.499 19.8853 105.406 19.7769 105.406 19.6445C105.406 19.512 105.499 19.4036 105.605 19.4036C105.71 19.4036 105.803 19.512 105.803 19.6445Z" fill="#80BA57"/>
<path d="M104.36 20.2464C104.347 20.6318 104.572 20.8485 104.996 20.8485C105.366 20.8485 105.234 20.6558 104.81 20.5836C104.678 20.5595 104.519 20.415 104.466 20.2464L104.374 19.9454L104.36 20.2464Z" fill="#80BA57"/>
<path d="M106.742 20.2227C106.742 20.3672 106.623 20.5237 106.504 20.5599C105.909 20.7405 105.869 20.7766 106.186 20.8248C106.583 20.885 106.901 20.596 106.822 20.2347C106.769 19.9457 106.769 19.9457 106.742 20.2227Z" fill="#80BA57"/>
<path d="M63.5355 36.816C54.9338 37.7071 47.854 41.9337 43.8046 48.5928C43.2488 49.508 43.2621 49.5561 44.1752 49.7006C45.3794 49.8812 48.0261 50.9289 49.5743 51.832C50.7918 52.5425 52.2078 53.6262 53.4782 54.8304C54.1398 55.4445 55.0662 56.2634 55.5426 56.6487C56.7865 57.612 58.0172 59.1775 59.0229 61.0078C60.2933 63.3439 60.9682 65.2706 61.6696 68.5339C62.1063 70.4967 62.2518 73.194 62.0004 74.338C61.3917 77.1919 59.4332 79.5641 56.6939 80.7923L55.4102 81.3583L55.2514 82.2012C55.1588 82.6588 55.0662 84.152 55.0265 85.5127C54.9735 87.5959 55 88.2823 55.2514 89.9079C55.6484 92.6896 55.4764 92.4126 56.8262 92.3163C68.5112 91.5456 76.7555 90.1006 84.894 87.4032C86.7202 86.8012 87.3686 86.5362 89.7374 85.4525C96.8172 82.1892 100.88 78.0107 101.912 72.9291C102.759 68.7265 100.986 60.8753 97.942 55.3C95.7453 51.2901 93.0722 47.9064 89.7639 44.9803C84.8675 40.6332 78.6214 37.8395 71.7534 36.9123C69.7551 36.6474 65.5999 36.5992 63.5355 36.816ZM66.4336 44.9321C67.8098 45.1127 69.2126 45.5703 71.7931 46.6782C75.3793 48.2315 76.6497 48.5446 79.2434 48.5446C80.1168 48.5446 80.8049 48.5807 80.752 48.6169C80.7123 48.653 80.1565 48.8457 79.5213 49.0504C77.0731 49.797 75.8557 50.5676 72.5341 53.4697C70.1389 55.5529 69.1067 56.2393 67.2937 56.9136C66.0763 57.3592 64.3824 57.7084 62.9929 57.7806C58.9303 58.0094 55.7278 55.1435 55.7278 51.254C55.7278 48.5205 57.4217 46.2567 60.161 45.3415C61.4843 44.896 64.5941 44.7033 66.4336 44.9321ZM94.422 59.912C94.6734 61.7423 94.5279 64.6685 94.1044 66.2459C93.5751 68.1847 93.1384 69.3045 92.2914 70.882C91.0078 73.2663 90.0682 74.4584 88.0171 76.3008C84.8808 79.1185 80.7388 81.0452 76.5835 81.6112C74.4926 81.9002 74.2544 81.7918 75.8954 81.3101C82.4723 79.3473 87.6201 75.5542 90.8225 70.316C92.6884 67.2574 93.9721 62.6455 94.025 58.7801C94.0382 58.0335 94.25 58.6356 94.422 59.912Z" fill="#80BA57"/>
<path d="M64.0912 49.0142C63.3898 49.2189 62.7943 49.6524 62.4238 50.2063C62.1326 50.6639 62.0665 50.9168 62.0797 51.5189C62.0929 52.41 62.4899 53.0482 63.3369 53.566C63.8 53.8429 64.025 53.8911 64.7793 53.8911C65.5336 53.8911 65.7586 53.8429 66.2217 53.566C66.5129 53.3854 66.9231 53.0241 67.1216 52.7472C67.9024 51.6634 67.4524 50.0016 66.182 49.3273C65.5601 48.9901 64.647 48.8577 64.0912 49.0142Z" fill="#80BA57"/>
<path d="M40.4829 52.5787C37.9289 53.7828 35.9969 55.0592 34.5412 56.5163C33.7075 57.3592 32.8209 58.5152 32.9267 58.6116C32.9664 58.6477 33.2576 58.5393 33.5752 58.3828C34.9911 57.6241 37.8098 56.7451 40.6285 56.1791C42.3488 55.8299 46.3718 55.3362 48.4891 55.2158C50.2094 55.1195 50.2226 55.1917 48.4361 54.12C46.7555 53.0964 44.8235 52.3378 42.9576 51.9766L42.0974 51.82L40.4829 52.5787Z" fill="#80BA57"/>
<path d="M49.9583 57.6478C49.7068 57.6719 48.6614 57.7442 47.6424 57.8164C41.8727 58.2138 37.2278 59.2614 34.343 60.8148C33.4034 61.3205 32.0007 62.4766 31.6963 62.9943C31.564 63.2231 31.5904 63.2231 32.1198 62.9221C33.0858 62.3682 34.4753 61.8383 35.8648 61.5132C38.4453 60.9111 42.9578 60.598 46.0147 60.8148L47.8409 60.9352L48.9922 59.8876C49.6407 59.3096 50.5935 58.575 51.1228 58.262C51.6389 57.9489 52.0756 57.6599 52.0756 57.6358C52.0756 57.5756 50.7523 57.5876 49.9583 57.6478Z" fill="#80BA57"/>
<path d="M52.393 60.5017C51.599 61.0436 50.5139 62.031 49.6934 62.9703L49.2435 63.4881L47.7614 63.4038L46.2792 63.3195L46.0013 63.8252C45.3529 64.9692 45.0353 66.4263 44.9691 68.5336C44.9162 70.3519 44.9294 70.6529 45.2603 72.0618C46.4116 77.1554 49.217 79.6481 53.24 79.1664C56.6541 78.757 59.3537 75.9151 59.3537 72.7361C59.3537 71.7969 58.8244 68.5576 58.4274 67.0886C57.779 64.6802 56.6409 62.1033 55.5822 60.6583L55.0926 59.9839H54.1266C53.2003 59.9839 53.1341 60.008 52.393 60.5017Z" fill="#80BA57"/>
<path d="M68.1273 186.104C63.231 186.815 59.4463 190.307 58.8243 194.666C58.7582 195.159 58.692 195.665 58.692 195.786C58.692 195.978 58.6258 195.966 58.1362 195.689C54.5632 193.666 50.8182 193.45 47.2452 195.039C45.0088 196.026 43.3811 197.52 42.296 199.543C41.2373 201.518 40.9197 203.312 41.2902 205.226C41.7005 207.358 42.64 209.152 44.0295 210.501L44.7706 211.223L46.0674 210.043C48.3965 207.912 50.2889 206.671 53.2002 205.323C56.1644 203.95 58.8508 203.191 62.3576 202.734C64.0647 202.505 64.7264 202.481 67.4921 202.529C72.2561 202.613 75.313 203.131 79.6668 204.6C80.8313 204.998 83.9411 206.358 84.8278 206.852C86.4819 207.791 88.4934 209.068 89.5124 209.838C90.1211 210.308 90.6769 210.681 90.7298 210.681C90.796 210.681 91.0739 210.392 91.3518 210.043C92.9265 208.08 93.5617 206.214 93.5353 203.697C93.4823 199.964 91.1797 196.689 87.4744 195.039C85.3836 194.1 83.9808 193.907 80.7387 194.1L80.2226 194.124L80.0638 193.522C79.3359 190.62 77.126 188.163 74.1485 186.923C72.4017 186.2 69.8609 185.863 68.1273 186.104Z" fill="#80BA57"/>
<path d="M104.506 186.863C104.413 186.947 104.347 187.14 104.36 187.308L104.373 187.621L104.466 187.32C104.519 187.152 104.678 187.007 104.81 186.983C105.234 186.911 105.366 186.718 104.995 186.718C104.81 186.718 104.598 186.778 104.506 186.863Z" fill="#80BA57"/>
<path d="M106.001 186.839C106.041 186.899 106.226 186.959 106.412 186.959C106.663 186.959 106.729 187.019 106.742 187.284C106.769 187.585 106.769 187.585 106.822 187.344C106.861 187.188 106.809 186.983 106.729 186.887C106.544 186.694 105.869 186.646 106.001 186.839Z" fill="#80BA57"/>
<path d="M105.327 187.73C105.208 188.019 105.38 188.308 105.631 188.26C105.79 188.236 105.869 188.115 105.869 187.922C105.869 187.573 105.446 187.429 105.327 187.73ZM105.803 187.922C105.803 188.055 105.71 188.163 105.605 188.163C105.499 188.163 105.406 188.055 105.406 187.922C105.406 187.79 105.499 187.682 105.605 187.682C105.71 187.682 105.803 187.79 105.803 187.922Z" fill="#80BA57"/>
<path d="M104.36 188.524C104.347 188.91 104.572 189.126 104.996 189.126C105.366 189.126 105.234 188.934 104.81 188.862C104.678 188.837 104.519 188.693 104.466 188.524L104.374 188.223L104.36 188.524Z" fill="#80BA57"/>
<path d="M106.742 188.501C106.742 188.645 106.623 188.802 106.504 188.838C105.909 189.018 105.869 189.055 106.186 189.103C106.583 189.163 106.901 188.874 106.822 188.513C106.769 188.224 106.769 188.224 106.742 188.501Z" fill="#80BA57"/>
<path d="M63.5355 205.094C54.9338 205.985 47.854 210.212 43.8046 216.871C43.2488 217.786 43.2621 217.834 44.1752 217.978C45.3794 218.159 48.0261 219.207 49.5743 220.11C50.7918 220.82 52.2078 221.904 53.4782 223.108C54.1398 223.722 55.0662 224.541 55.5426 224.927C56.7865 225.89 58.0172 227.455 59.0229 229.286C60.2933 231.622 60.9682 233.548 61.6696 236.812C62.1063 238.775 62.2518 241.472 62.0004 242.616C61.3917 245.47 59.4332 247.842 56.6939 249.07L55.4102 249.636L55.2514 250.479C55.1588 250.937 55.0662 252.43 55.0265 253.791C54.9735 255.874 55 256.56 55.2514 258.186C55.6484 260.967 55.4764 260.69 56.8262 260.594C68.5112 259.823 76.7555 258.378 84.894 255.681C86.7202 255.079 87.3686 254.814 89.7374 253.73C96.8172 250.467 100.88 246.289 101.912 241.207C102.759 237.004 100.986 229.153 97.942 223.578C95.7453 219.568 93.0722 216.184 89.7639 213.258C84.8675 208.911 78.6214 206.117 71.7534 205.19C69.7551 204.925 65.5999 204.877 63.5355 205.094ZM66.4336 213.21C67.8098 213.391 69.2126 213.848 71.7931 214.956C75.3793 216.509 76.6497 216.822 79.2434 216.822C80.1168 216.822 80.8049 216.859 80.752 216.895C80.7123 216.931 80.1565 217.123 79.5213 217.328C77.0731 218.075 75.8557 218.845 72.5341 221.748C70.1389 223.831 69.1067 224.517 67.2937 225.191C66.0763 225.637 64.3824 225.986 62.9929 226.058C58.9303 226.287 55.7278 223.421 55.7278 219.532C55.7278 216.798 57.4217 214.535 60.161 213.619C61.4843 213.174 64.5941 212.981 66.4336 213.21ZM94.422 228.19C94.6734 230.02 94.5279 232.946 94.1044 234.524C93.5751 236.462 93.1384 237.582 92.2914 239.16C91.0078 241.544 90.0682 242.736 88.0171 244.579C84.8808 247.396 80.7388 249.323 76.5835 249.889C74.4926 250.178 74.2544 250.07 75.8954 249.588C82.4723 247.625 87.6201 243.832 90.8225 238.594C92.6884 235.535 93.9721 230.923 94.025 227.058C94.0382 226.311 94.25 226.913 94.422 228.19Z" fill="#80BA57"/>
<path d="M64.0912 217.292C63.3898 217.497 62.7943 217.93 62.4238 218.484C62.1326 218.942 62.0665 219.195 62.0797 219.797C62.0929 220.688 62.4899 221.326 63.3369 221.844C63.8 222.121 64.025 222.169 64.7793 222.169C65.5336 222.169 65.7586 222.121 66.2217 221.844C66.5129 221.663 66.9231 221.302 67.1216 221.025C67.9024 219.941 67.4524 218.28 66.182 217.605C65.5601 217.268 64.647 217.136 64.0912 217.292Z" fill="#80BA57"/>
<path d="M40.4829 220.857C37.9289 222.061 35.9969 223.337 34.5412 224.794C33.7075 225.637 32.8209 226.793 32.9267 226.89C32.9664 226.926 33.2576 226.817 33.5752 226.661C34.9911 225.902 37.8098 225.023 40.6285 224.457C42.3488 224.108 46.3718 223.614 48.4891 223.494C50.2094 223.397 50.2226 223.47 48.4361 222.398C46.7555 221.374 44.8235 220.616 42.9576 220.255L42.0974 220.098L40.4829 220.857Z" fill="#80BA57"/>
<path d="M49.9583 225.926C49.7068 225.95 48.6614 226.022 47.6424 226.095C41.8727 226.492 37.2278 227.54 34.343 229.093C33.4034 229.599 32.0007 230.755 31.6963 231.273C31.564 231.501 31.5904 231.501 32.1198 231.2C33.0858 230.646 34.4753 230.117 35.8648 229.791C38.4453 229.189 42.9578 228.876 46.0147 229.093L47.8409 229.213L48.9922 228.166C49.6407 227.588 50.5935 226.853 51.1228 226.54C51.6389 226.227 52.0756 225.938 52.0756 225.914C52.0756 225.854 50.7523 225.866 49.9583 225.926Z" fill="#80BA57"/>
<path d="M52.393 228.78C51.599 229.322 50.5139 230.309 49.6934 231.248L49.2435 231.766L47.7614 231.682L46.2792 231.597L46.0013 232.103C45.3529 233.247 45.0353 234.704 44.9691 236.812C44.9162 238.63 44.9294 238.931 45.2603 240.34C46.4116 245.433 49.217 247.926 53.24 247.444C56.6541 247.035 59.3537 244.193 59.3537 241.014C59.3537 240.075 58.8244 236.836 58.4274 235.367C57.779 232.958 56.6409 230.381 55.5822 228.936L55.0926 228.262H54.1266C53.2003 228.262 53.1341 228.286 52.393 228.78Z" fill="#80BA57"/>
<path d="M209.264 17.8262C204.368 18.5366 200.583 22.0287 199.961 26.3878C199.895 26.8815 199.829 27.3873 199.829 27.5077C199.829 27.7004 199.762 27.6883 199.273 27.4114C195.7 25.3884 191.955 25.1716 188.382 26.7611C186.145 27.7485 184.518 29.2417 183.433 31.2647C182.374 33.2396 182.056 35.0338 182.427 36.9484C182.837 39.0798 183.777 40.874 185.166 42.2227L185.907 42.9452L187.204 41.7651C189.533 39.6337 191.425 38.3934 194.337 37.0447C197.301 35.672 199.987 34.9134 203.494 34.4558C205.201 34.227 205.863 34.2029 208.629 34.2511C213.393 34.3354 216.45 34.8532 220.803 36.3222C221.968 36.7196 225.078 38.0803 225.964 38.574C227.619 39.5133 229.63 40.7897 230.649 41.5604C231.258 42.03 231.813 42.4033 231.866 42.4033C231.933 42.4033 232.21 42.1143 232.488 41.7651C234.063 39.8023 234.698 37.9358 234.672 35.4191C234.619 31.6862 232.316 28.4108 228.611 26.7611C226.52 25.8219 225.117 25.6292 221.875 25.8219L221.359 25.8459L221.2 25.2439C220.473 22.3418 218.263 19.8853 215.285 18.645C213.538 17.9225 210.998 17.5853 209.264 17.8262Z" fill="#80BA57"/>
<path d="M245.642 18.5844C245.549 18.6687 245.483 18.8613 245.496 19.0299L245.51 19.343L245.602 19.042C245.655 18.8734 245.814 18.7289 245.946 18.7048C246.37 18.6326 246.502 18.4399 246.132 18.4399C245.946 18.4399 245.735 18.5001 245.642 18.5844Z" fill="#80BA57"/>
<path d="M247.138 18.5604C247.178 18.6206 247.363 18.6808 247.548 18.6808C247.8 18.6808 247.866 18.741 247.879 19.0059C247.905 19.307 247.905 19.307 247.958 19.0661C247.998 18.9096 247.945 18.7049 247.866 18.6086C247.68 18.4159 247.006 18.3677 247.138 18.5604Z" fill="#80BA57"/>
<path d="M246.463 19.4518C246.344 19.7408 246.516 20.0298 246.767 19.9816C246.926 19.9576 247.005 19.8371 247.005 19.6445C247.005 19.2953 246.582 19.1508 246.463 19.4518ZM246.939 19.6445C246.939 19.7769 246.846 19.8853 246.741 19.8853C246.635 19.8853 246.542 19.7769 246.542 19.6445C246.542 19.512 246.635 19.4036 246.741 19.4036C246.846 19.4036 246.939 19.512 246.939 19.6445Z" fill="#80BA57"/>
<path d="M245.497 20.2464C245.483 20.6318 245.708 20.8485 246.132 20.8485C246.502 20.8485 246.37 20.6558 245.947 20.5836C245.814 20.5595 245.655 20.415 245.603 20.2464L245.51 19.9454L245.497 20.2464Z" fill="#80BA57"/>
<path d="M247.879 20.2227C247.879 20.3672 247.76 20.5237 247.641 20.5599C247.045 20.7405 247.005 20.7766 247.323 20.8248C247.72 20.885 248.038 20.596 247.958 20.2347C247.905 19.9457 247.905 19.9457 247.879 20.2227Z" fill="#80BA57"/>
<path d="M204.672 36.816C196.07 37.7071 188.991 41.9337 184.941 48.5928C184.385 49.508 184.399 49.5561 185.312 49.7006C186.516 49.8812 189.163 50.9289 190.711 51.832C191.928 52.5425 193.344 53.6262 194.615 54.8304C195.276 55.4445 196.203 56.2634 196.679 56.6487C197.923 57.612 199.154 59.1775 200.16 61.0078C201.43 63.3439 202.105 65.2706 202.806 68.5339C203.243 70.4967 203.388 73.194 203.137 74.338C202.528 77.1919 200.57 79.5641 197.83 80.7923L196.547 81.3583L196.388 82.2012C196.295 82.6588 196.203 84.152 196.163 85.5127C196.11 87.5959 196.137 88.2823 196.388 89.9079C196.785 92.6896 196.613 92.4126 197.963 92.3163C209.648 91.5456 217.892 90.1006 226.031 87.4032C227.857 86.8012 228.505 86.5362 230.874 85.4525C237.954 82.1892 242.016 78.0107 243.049 72.9291C243.896 68.7265 242.122 60.8753 239.079 55.3C236.882 51.2901 234.209 47.9064 230.9 44.9803C226.004 40.6332 219.758 37.8395 212.89 36.9123C210.892 36.6474 206.736 36.5992 204.672 36.816ZM207.57 44.9321C208.946 45.1127 210.349 45.5703 212.93 46.6782C216.516 48.2315 217.786 48.5446 220.38 48.5446C221.253 48.5446 221.942 48.5807 221.889 48.6169C221.849 48.653 221.293 48.8457 220.658 49.0504C218.21 49.797 216.992 50.5676 213.671 53.4697C211.275 55.5529 210.243 56.2393 208.43 56.9136C207.213 57.3592 205.519 57.7084 204.13 57.7806C200.067 58.0094 196.864 55.1435 196.864 51.254C196.864 48.5205 198.558 46.2567 201.298 45.3415C202.621 44.896 205.731 44.7033 207.57 44.9321ZM235.559 59.912C235.81 61.7423 235.664 64.6685 235.241 66.2459C234.712 68.1847 234.275 69.3045 233.428 70.882C232.144 73.2663 231.205 74.4584 229.154 76.3008C226.017 79.1185 221.875 81.0452 217.72 81.6112C215.629 81.9002 215.391 81.7918 217.032 81.3101C223.609 79.3473 228.757 75.5542 231.959 70.316C233.825 67.2574 235.109 62.6455 235.162 58.7801C235.175 58.0335 235.387 58.6356 235.559 59.912Z" fill="#80BA57"/>
<path d="M205.228 49.0142C204.526 49.2189 203.931 49.6524 203.56 50.2063C203.269 50.6639 203.203 50.9168 203.216 51.5189C203.229 52.41 203.626 53.0482 204.473 53.566C204.936 53.8429 205.161 53.8911 205.916 53.8911C206.67 53.8911 206.895 53.8429 207.358 53.566C207.649 53.3854 208.059 53.0241 208.258 52.7472C209.039 51.6634 208.589 50.0016 207.318 49.3273C206.696 48.9901 205.783 48.8577 205.228 49.0142Z" fill="#80BA57"/>
<path d="M181.62 52.5787C179.066 53.7828 177.133 55.0592 175.678 56.5163C174.844 57.3592 173.957 58.5152 174.063 58.6116C174.103 58.6477 174.394 58.5393 174.712 58.3828C176.128 57.6241 178.946 56.7451 181.765 56.1791C183.485 55.8299 187.508 55.3362 189.626 55.2158C191.346 55.1195 191.359 55.1917 189.573 54.12C187.892 53.0964 185.96 52.3378 184.094 51.9766L183.234 51.82L181.62 52.5787Z" fill="#80BA57"/>
<path d="M191.094 57.6478C190.843 57.6719 189.798 57.7442 188.779 57.8164C183.009 58.2138 178.364 59.2614 175.479 60.8148C174.54 61.3205 173.137 62.4766 172.833 62.9943C172.7 63.2231 172.727 63.2231 173.256 62.9221C174.222 62.3682 175.612 61.8383 177.001 61.5132C179.582 60.9111 184.094 60.598 187.151 60.8148L188.977 60.9352L190.128 59.8876C190.777 59.3096 191.73 58.575 192.259 58.262C192.775 57.9489 193.212 57.6599 193.212 57.6358C193.212 57.5756 191.888 57.5876 191.094 57.6478Z" fill="#80BA57"/>
<path d="M193.529 60.5017C192.735 61.0436 191.65 62.031 190.83 62.9703L190.38 63.4881L188.898 63.4038L187.415 63.3195L187.138 63.8252C186.489 64.9692 186.172 66.4263 186.105 68.5336C186.052 70.3519 186.066 70.6529 186.397 72.0618C187.548 77.1554 190.353 79.6481 194.376 79.1664C197.79 78.757 200.49 75.9151 200.49 72.7361C200.49 71.7969 199.961 68.5576 199.564 67.0886C198.915 64.6802 197.777 62.1033 196.718 60.6583L196.229 59.9839H195.263C194.336 59.9839 194.27 60.008 193.529 60.5017Z" fill="#80BA57"/>
<path d="M137.528 101.107C132.632 101.817 128.847 105.309 128.225 109.668C128.159 110.162 128.093 110.668 128.093 110.788C128.093 110.981 128.026 110.969 127.537 110.692C123.964 108.669 120.219 108.452 116.646 110.042C114.409 111.029 112.782 112.522 111.697 114.545C110.638 116.52 110.32 118.314 110.691 120.229C111.101 122.36 112.041 124.155 113.43 125.503L114.171 126.226L115.468 125.046C117.797 122.914 119.689 121.674 122.601 120.325C125.565 118.953 128.251 118.194 131.758 117.736C133.465 117.508 134.127 117.483 136.893 117.532C141.657 117.616 144.714 118.134 149.067 119.603C150.232 120 153.342 121.361 154.228 121.855C155.883 122.794 157.894 124.07 158.913 124.841C159.522 125.311 160.078 125.684 160.13 125.684C160.197 125.684 160.475 125.395 160.752 125.046C162.327 123.083 162.962 121.216 162.936 118.7C162.883 114.967 160.58 111.691 156.875 110.042C154.784 109.102 153.381 108.91 150.139 109.102L149.623 109.126L149.464 108.524C148.737 105.622 146.527 103.166 143.549 101.926C141.802 101.203 139.262 100.866 137.528 101.107Z" fill="#80BA57"/>
<path d="M173.906 101.865C173.813 101.949 173.747 102.142 173.76 102.311L173.774 102.624L173.866 102.323C173.919 102.154 174.078 102.01 174.21 101.986C174.634 101.913 174.766 101.721 174.396 101.721C174.21 101.721 173.999 101.781 173.906 101.865Z" fill="#80BA57"/>
<path d="M175.402 101.841C175.441 101.901 175.627 101.962 175.812 101.962C176.063 101.962 176.129 102.022 176.143 102.287C176.169 102.588 176.169 102.588 176.222 102.347C176.262 102.19 176.209 101.986 176.129 101.889C175.944 101.697 175.269 101.649 175.402 101.841Z" fill="#80BA57"/>
<path d="M174.727 102.732C174.608 103.021 174.78 103.31 175.031 103.262C175.19 103.238 175.269 103.118 175.269 102.925C175.269 102.576 174.846 102.431 174.727 102.732ZM175.203 102.925C175.203 103.057 175.11 103.166 175.005 103.166C174.899 103.166 174.806 103.057 174.806 102.925C174.806 102.792 174.899 102.684 175.005 102.684C175.11 102.684 175.203 102.792 175.203 102.925Z" fill="#80BA57"/>
<path d="M173.761 103.527C173.747 103.912 173.972 104.129 174.396 104.129C174.766 104.129 174.634 103.936 174.211 103.864C174.078 103.84 173.919 103.696 173.867 103.527L173.774 103.226L173.761 103.527Z" fill="#80BA57"/>
<path d="M176.143 103.503C176.143 103.648 176.024 103.804 175.905 103.84C175.309 104.021 175.269 104.057 175.587 104.105C175.984 104.166 176.302 103.877 176.222 103.515C176.169 103.226 176.169 103.226 176.143 103.503Z" fill="#80BA57"/>
<path d="M132.936 120.096C124.334 120.987 117.255 125.214 113.205 131.873C112.649 132.788 112.663 132.837 113.576 132.981C114.78 133.162 117.427 134.209 118.975 135.112C120.192 135.823 121.608 136.907 122.879 138.111C123.54 138.725 124.467 139.544 124.943 139.929C126.187 140.892 127.418 142.458 128.424 144.288C129.694 146.624 130.369 148.551 131.07 151.814C131.507 153.777 131.652 156.474 131.401 157.618C130.792 160.472 128.834 162.844 126.094 164.073L124.811 164.639L124.652 165.482C124.559 165.939 124.467 167.432 124.427 168.793C124.374 170.876 124.401 171.563 124.652 173.188C125.049 175.97 124.877 175.693 126.227 175.597C137.912 174.826 146.156 173.381 154.295 170.684C156.121 170.082 156.769 169.817 159.138 168.733C166.218 165.47 170.28 161.291 171.313 156.209C172.16 152.007 170.386 144.156 167.343 138.58C165.146 134.571 162.473 131.187 159.165 128.261C154.268 123.914 148.022 121.12 141.154 120.193C139.156 119.928 135.001 119.88 132.936 120.096ZM135.834 128.212C137.21 128.393 138.613 128.851 141.194 129.959C144.78 131.512 146.05 131.825 148.644 131.825C149.517 131.825 150.206 131.861 150.153 131.897C150.113 131.933 149.557 132.126 148.922 132.331C146.474 133.077 145.256 133.848 141.935 136.75C139.54 138.833 138.507 139.52 136.694 140.194C135.477 140.64 133.783 140.989 132.394 141.061C128.331 141.29 125.128 138.424 125.128 134.534C125.128 131.801 126.822 129.537 129.562 128.622C130.885 128.176 133.995 127.984 135.834 128.212ZM163.823 143.192C164.074 145.023 163.928 147.949 163.505 149.526C162.976 151.465 162.539 152.585 161.692 154.162C160.408 156.547 159.469 157.739 157.418 159.581C154.281 162.399 150.139 164.326 145.984 164.892C143.893 165.181 143.655 165.072 145.296 164.591C151.873 162.628 157.021 158.835 160.223 153.596C162.089 150.538 163.373 145.926 163.426 142.06C163.439 141.314 163.651 141.916 163.823 143.192Z" fill="#80BA57"/>
<path d="M133.492 132.295C132.79 132.499 132.195 132.933 131.824 133.487C131.533 133.944 131.467 134.197 131.48 134.799C131.493 135.69 131.89 136.329 132.737 136.847C133.2 137.123 133.425 137.172 134.18 137.172C134.934 137.172 135.159 137.123 135.622 136.847C135.913 136.666 136.323 136.305 136.522 136.028C137.303 134.944 136.853 133.282 135.582 132.608C134.96 132.271 134.047 132.138 133.492 132.295Z" fill="#80BA57"/>
<path d="M109.884 135.859C107.33 137.063 105.397 138.34 103.942 139.797C103.108 140.64 102.221 141.796 102.327 141.892C102.367 141.928 102.658 141.82 102.976 141.663C104.392 140.905 107.21 140.026 110.029 139.46C111.749 139.11 115.772 138.617 117.89 138.496C119.61 138.4 119.623 138.472 117.837 137.401C116.156 136.377 114.224 135.618 112.358 135.257L111.498 135.101L109.884 135.859Z" fill="#80BA57"/>
<path d="M119.359 140.929C119.107 140.953 118.062 141.025 117.043 141.097C111.273 141.495 106.628 142.542 103.743 144.096C102.804 144.601 101.401 145.757 101.097 146.275C100.964 146.504 100.991 146.504 101.52 146.203C102.486 145.649 103.876 145.119 105.265 144.794C107.846 144.192 112.358 143.879 115.415 144.096L117.241 144.216L118.393 143.168C119.041 142.59 119.994 141.856 120.523 141.543C121.039 141.23 121.476 140.941 121.476 140.917C121.476 140.856 120.153 140.868 119.359 140.929Z" fill="#80BA57"/>
<path d="M121.793 143.782C120.999 144.324 119.914 145.312 119.094 146.251L118.644 146.769L117.162 146.684L115.68 146.6L115.402 147.106C114.753 148.25 114.436 149.707 114.369 151.814C114.316 153.632 114.33 153.933 114.661 155.342C115.812 160.436 118.617 162.929 122.64 162.447C126.054 162.037 128.754 159.196 128.754 156.017C128.754 155.077 128.225 151.838 127.828 150.369C127.179 147.961 126.041 145.384 124.983 143.939L124.493 143.264H123.527C122.601 143.264 122.534 143.289 121.793 143.782Z" fill="#80BA57"/>
<path d="M209.264 186.104C204.368 186.815 200.583 190.307 199.961 194.666C199.895 195.159 199.829 195.665 199.829 195.786C199.829 195.978 199.762 195.966 199.273 195.689C195.7 193.666 191.955 193.45 188.382 195.039C186.145 196.026 184.518 197.52 183.433 199.543C182.374 201.518 182.056 203.312 182.427 205.226C182.837 207.358 183.777 209.152 185.166 210.501L185.907 211.223L187.204 210.043C189.533 207.912 191.425 206.671 194.337 205.323C197.301 203.95 199.987 203.191 203.494 202.734C205.201 202.505 205.863 202.481 208.629 202.529C213.393 202.613 216.45 203.131 220.803 204.6C221.968 204.998 225.078 206.358 225.964 206.852C227.619 207.791 229.63 209.068 230.649 209.838C231.258 210.308 231.813 210.681 231.866 210.681C231.933 210.681 232.21 210.392 232.488 210.043C234.063 208.08 234.698 206.214 234.672 203.697C234.619 199.964 232.316 196.689 228.611 195.039C226.52 194.1 225.117 193.907 221.875 194.1L221.359 194.124L221.2 193.522C220.473 190.62 218.263 188.163 215.285 186.923C213.538 186.2 210.998 185.863 209.264 186.104Z" fill="#80BA57"/>
<path d="M245.642 186.863C245.549 186.947 245.483 187.14 245.496 187.308L245.51 187.621L245.602 187.32C245.655 187.152 245.814 187.007 245.946 186.983C246.37 186.911 246.502 186.718 246.132 186.718C245.946 186.718 245.735 186.778 245.642 186.863Z" fill="#80BA57"/>
<path d="M247.138 186.839C247.178 186.899 247.363 186.959 247.548 186.959C247.8 186.959 247.866 187.019 247.879 187.284C247.905 187.585 247.905 187.585 247.958 187.344C247.998 187.188 247.945 186.983 247.866 186.887C247.68 186.694 247.006 186.646 247.138 186.839Z" fill="#80BA57"/>
<path d="M246.463 187.73C246.344 188.019 246.516 188.308 246.767 188.26C246.926 188.236 247.005 188.115 247.005 187.922C247.005 187.573 246.582 187.429 246.463 187.73ZM246.939 187.922C246.939 188.055 246.846 188.163 246.741 188.163C246.635 188.163 246.542 188.055 246.542 187.922C246.542 187.79 246.635 187.682 246.741 187.682C246.846 187.682 246.939 187.79 246.939 187.922Z" fill="#80BA57"/>
<path d="M245.497 188.524C245.483 188.91 245.708 189.126 246.132 189.126C246.502 189.126 246.37 188.934 245.947 188.862C245.814 188.837 245.655 188.693 245.603 188.524L245.51 188.223L245.497 188.524Z" fill="#80BA57"/>
<path d="M247.879 188.501C247.879 188.645 247.76 188.802 247.641 188.838C247.045 189.018 247.005 189.055 247.323 189.103C247.72 189.163 248.038 188.874 247.958 188.513C247.905 188.224 247.905 188.224 247.879 188.501Z" fill="#80BA57"/>
<path d="M204.672 205.094C196.07 205.985 188.991 210.212 184.941 216.871C184.385 217.786 184.399 217.834 185.312 217.978C186.516 218.159 189.163 219.207 190.711 220.11C191.928 220.82 193.344 221.904 194.615 223.108C195.276 223.722 196.203 224.541 196.679 224.927C197.923 225.89 199.154 227.455 200.16 229.286C201.43 231.622 202.105 233.548 202.806 236.812C203.243 238.775 203.388 241.472 203.137 242.616C202.528 245.47 200.57 247.842 197.83 249.07L196.547 249.636L196.388 250.479C196.295 250.937 196.203 252.43 196.163 253.791C196.11 255.874 196.137 256.56 196.388 258.186C196.785 260.967 196.613 260.69 197.963 260.594C209.648 259.823 217.892 258.378 226.031 255.681C227.857 255.079 228.505 254.814 230.874 253.73C237.954 250.467 242.016 246.289 243.049 241.207C243.896 237.004 242.122 229.153 239.079 223.578C236.882 219.568 234.209 216.184 230.9 213.258C226.004 208.911 219.758 206.117 212.89 205.19C210.892 204.925 206.736 204.877 204.672 205.094ZM207.57 213.21C208.946 213.391 210.349 213.848 212.93 214.956C216.516 216.509 217.786 216.822 220.38 216.822C221.253 216.822 221.942 216.859 221.889 216.895C221.849 216.931 221.293 217.123 220.658 217.328C218.21 218.075 216.992 218.845 213.671 221.748C211.275 223.831 210.243 224.517 208.43 225.191C207.213 225.637 205.519 225.986 204.13 226.058C200.067 226.287 196.864 223.421 196.864 219.532C196.864 216.798 198.558 214.535 201.298 213.619C202.621 213.174 205.731 212.981 207.57 213.21ZM235.559 228.19C235.81 230.02 235.664 232.946 235.241 234.524C234.712 236.462 234.275 237.582 233.428 239.16C232.144 241.544 231.205 242.736 229.154 244.579C226.017 247.396 221.875 249.323 217.72 249.889C215.629 250.178 215.391 250.07 217.032 249.588C223.609 247.625 228.757 243.832 231.959 238.594C233.825 235.535 235.109 230.923 235.162 227.058C235.175 226.311 235.387 226.913 235.559 228.19Z" fill="#80BA57"/>
<path d="M205.228 217.292C204.526 217.497 203.931 217.93 203.56 218.484C203.269 218.942 203.203 219.195 203.216 219.797C203.229 220.688 203.626 221.326 204.473 221.844C204.936 222.121 205.161 222.169 205.916 222.169C206.67 222.169 206.895 222.121 207.358 221.844C207.649 221.663 208.059 221.302 208.258 221.025C209.039 219.941 208.589 218.28 207.318 217.605C206.696 217.268 205.783 217.136 205.228 217.292Z" fill="#80BA57"/>
<path d="M181.62 220.857C179.066 222.061 177.133 223.337 175.678 224.794C174.844 225.637 173.957 226.793 174.063 226.89C174.103 226.926 174.394 226.817 174.712 226.661C176.128 225.902 178.946 225.023 181.765 224.457C183.485 224.108 187.508 223.614 189.626 223.494C191.346 223.397 191.359 223.47 189.573 222.398C187.892 221.374 185.96 220.616 184.094 220.255L183.234 220.098L181.62 220.857Z" fill="#80BA57"/>
<path d="M191.094 225.926C190.843 225.95 189.798 226.022 188.779 226.095C183.009 226.492 178.364 227.54 175.479 229.093C174.54 229.599 173.137 230.755 172.833 231.273C172.7 231.501 172.727 231.501 173.256 231.2C174.222 230.646 175.612 230.117 177.001 229.791C179.582 229.189 184.094 228.876 187.151 229.093L188.977 229.213L190.128 228.166C190.777 227.588 191.73 226.853 192.259 226.54C192.775 226.227 193.212 225.938 193.212 225.914C193.212 225.854 191.888 225.866 191.094 225.926Z" fill="#80BA57"/>
<path d="M193.529 228.78C192.735 229.322 191.65 230.309 190.83 231.248L190.38 231.766L188.898 231.682L187.415 231.597L187.138 232.103C186.489 233.247 186.172 234.704 186.105 236.812C186.052 238.63 186.066 238.931 186.397 240.34C187.548 245.433 190.353 247.926 194.376 247.444C197.79 247.035 200.49 244.193 200.49 241.014C200.49 240.075 199.961 236.836 199.564 235.367C198.915 232.958 197.777 230.381 196.718 228.936L196.229 228.262H195.263C194.336 228.262 194.27 228.286 193.529 228.78Z" fill="#80BA57"/>
</svg>
