<svg width="28" height="30" viewBox="0 0 28 30" fill="none" xmlns="http://www.w3.org/2000/svg">
<path d="M23.5471 0.0877075C23.4936 0.110367 23.3556 0.201012 23.2444 0.287123C22.8749 0.577181 22.6078 0.595308 22.1537 0.359636C21.9134 0.232737 21.5483 0.237268 21.3569 0.368702C21.0676 0.572649 21.0231 0.681419 21.0275 1.17089C21.032 1.41563 21.0453 1.66943 21.0631 1.73288C21.0898 1.84165 21.0631 1.86885 20.7827 2.05013C20.2752 2.39005 19.8746 2.85233 19.5318 3.50043C19.2157 4.1032 19.1 4.44765 18.4189 6.77265C18.2052 7.50233 17.9382 8.10964 17.7779 8.21388C17.7067 8.26373 17.404 8.31812 16.9143 8.37704C14.3636 8.68522 12.218 9.4285 9.58267 10.9196C8.0558 11.7807 7.0275 12.2838 6.27075 12.533C5.99475 12.6237 5.78553 12.7098 5.80779 12.7279C5.8256 12.746 6.15501 12.9953 6.53339 13.2854C6.91176 13.5709 7.50381 14.0468 7.84658 14.3459C8.81256 15.1798 9.03068 15.3248 9.6717 15.5469C9.9566 15.6466 10.0501 15.6557 10.8291 15.6512C11.5858 15.6512 11.7327 15.6376 12.2091 15.5243C13.0148 15.3384 13.7893 15.0892 14.5016 14.7946C14.8889 14.6314 16.251 13.9335 16.7451 13.6434C16.9633 13.5165 17.1502 13.4123 17.1591 13.4123C17.168 13.4123 17.2482 13.3669 17.3417 13.308C17.6978 13.0814 18.1963 12.8231 18.1963 12.8639C18.1963 12.9092 17.5509 13.7794 17.2037 14.2054C16.8609 14.6224 16.2555 15.2433 15.8816 15.5605C14.7687 16.5077 13.6246 17.0153 11.8841 17.319C11.0383 17.4686 10.01 17.4595 9.41796 17.2963C8.65676 17.0924 8.02019 16.7207 7.16105 15.9775C5.9725 14.9623 5.77218 14.8036 4.44118 13.8292C3.96486 13.4803 3.48855 13.1313 3.38172 13.0497C3.22146 12.9319 3.11463 12.8956 2.73625 12.8412C2.48696 12.8004 2.1531 12.7415 1.99284 12.7053C1.31176 12.5512 1.16041 12.533 0.9779 12.5874C0.577264 12.7098 0.425913 12.9545 0.350237 13.6072C0.279013 14.1737 0.279013 15.2659 0.345786 15.769C0.541652 17.2374 1.23164 18.5925 2.438 19.8661C3.09682 20.5595 3.67997 21.058 4.97981 22.0324C7.87329 24.1943 9.20429 25.0327 10.4196 25.4452C10.8692 25.5993 11.7773 25.7851 12.0755 25.7851C12.3693 25.7851 12.3649 25.7669 12.3604 26.5782C12.3604 27.2036 12.3515 27.3215 12.2936 27.3441C12.2536 27.3577 12.031 27.3713 11.7951 27.3713C11.2609 27.3713 11.0472 27.4574 10.8647 27.7384C10.7668 27.888 10.7401 27.9786 10.7401 28.1826C10.7401 28.4817 10.838 28.6766 11.0873 28.8851L11.2609 29.0256H13.5668H15.8727L16.0463 28.8851C16.2955 28.6766 16.3935 28.4817 16.3935 28.1826C16.3935 27.9741 16.3668 27.8925 16.2599 27.7384C16.0418 27.4167 15.9795 27.3985 14.9467 27.3713L14.0342 27.3487L14.0208 26.5465L14.0119 25.7488L14.1321 25.7216C14.2033 25.708 14.3858 25.6763 14.5461 25.6491C16.0774 25.3862 17.9515 24.3892 19.8657 22.821C21.0631 21.8376 22.1715 20.4643 22.7235 19.2724C23.3779 17.8493 23.6583 16.4534 23.9388 13.299C24.0056 12.5466 24.1925 11.0646 24.2816 10.6069L24.3528 10.2307L24.5397 10.2534C25.065 10.3304 25.4389 9.97236 25.5413 9.3016C25.6081 8.87557 25.5413 8.36344 25.3366 7.76066C25.2475 7.4978 25.1897 7.25759 25.2075 7.20774C25.2253 7.13975 25.292 7.11709 25.5102 7.0899C26.3248 7.00379 26.9124 6.92221 27.0014 6.88595C27.1884 6.80437 27.1172 6.66841 26.5207 5.97952L25.9375 5.30876L25.9242 4.66066C25.9153 4.07601 25.9019 3.97177 25.7906 3.66812C25.7194 3.4823 25.6126 3.24209 25.5547 3.13332L25.4434 2.94297L25.6126 2.74809C25.706 2.64385 25.804 2.53508 25.8307 2.51241C25.9598 2.39911 26.1156 2.13625 26.1423 1.98215C26.1779 1.7782 26.1067 1.538 25.9553 1.35671C25.804 1.17089 25.7372 1.13917 25.3099 1.05759C25.1051 1.02133 24.8959 0.957882 24.8424 0.921625C24.7846 0.885368 24.651 0.717678 24.5442 0.549988C24.2548 0.105835 23.9032 -0.0573215 23.5471 0.0877075ZM23.3734 4.13946C23.8498 4.33888 23.9299 4.98244 23.5248 5.31782C23.1909 5.58975 22.6879 5.46285 22.4965 5.05949C22.2339 4.49297 22.8037 3.89472 23.3734 4.13946Z" fill="white"/>
</svg>
