<svg width="168" height="211" viewBox="0 0 168 211" fill="none" xmlns="http://www.w3.org/2000/svg">
<path d="M4.57701 1.45268C3.31599 4.56319 4.15667 10.532 6.34243 14.9035L8.52819 19.2751L4.82921 18.7706C1.4665 18.3503 0.962093 18.5184 0.373619 20.1998C-0.80333 23.3103 0.878025 31.1286 4.3248 38.1062L7.51938 44.7476L5.16548 44.2432C3.56819 43.991 2.72752 44.1591 2.39125 45.0839C1.55057 47.3537 1.88684 51.6412 3.14786 53.8269C3.73633 55.0039 4.82921 57.0215 5.58582 58.4507C6.25836 59.7957 7.93972 62.2337 9.36887 63.831C12.5634 67.2778 12.6475 68.4547 9.87328 67.7822C8.36006 67.3618 7.60345 67.614 7.26718 68.4547C6.4265 70.7245 9.95735 77.0296 14.0767 80.3083L18.0279 83.5869L17.4394 93.5069C16.7668 103.931 17.019 104.94 20.718 112.674C23.3241 118.223 38.8767 134.028 44.257 136.634C47.956 138.399 49.1329 139.66 51.8231 144.284C53.6726 147.31 56.615 151.177 58.4645 152.859C60.3139 154.54 62.6678 156.81 63.6767 157.735C67.3756 161.181 69.2251 172.867 67.5438 181.694C66.1987 188.419 65.4421 189.933 61.659 192.959C57.5397 196.238 53.1682 202.123 53.1682 204.308C53.1682 205.906 53.3363 205.99 55.5221 204.813C56.7831 204.14 58.2963 202.711 58.9689 201.618C60.398 199.012 66.7031 195.061 69.3933 195.061C71.7472 195.061 75.8665 196.658 75.8665 197.583C75.8665 197.919 76.8753 199.264 78.2204 200.609C79.4814 201.87 81.415 204.729 82.5919 206.83C83.7689 208.848 85.3661 210.697 86.2068 210.866C88.1404 211.286 88.0563 210.109 85.6184 204.897C83.0963 199.348 82.3397 196.154 83.4326 195.481C84.7777 194.64 95.0339 199.853 96.5472 202.207C97.3038 203.384 98.4807 204.308 99.0692 204.308C101.423 204.308 101.255 201.786 98.9011 198.76C97.556 197.078 95.6224 194.556 94.6977 193.211L92.8482 190.773L94.6977 188.756C95.7065 187.663 98.2285 186.15 100.33 185.477C107.56 182.955 113.361 183.964 122.02 189.344C123.869 190.437 126.475 189.68 125.803 188.167C125.382 187.074 120.17 182.955 116.303 180.769L114.117 179.508L117.396 179.256C119.245 179.088 121.599 179.424 122.692 180.013C123.785 180.601 124.878 180.769 125.214 180.433C126.223 179.424 122.356 176.65 118.489 175.641C115.631 174.885 114.622 174.969 112.772 176.061C110.334 177.491 106.383 177.827 104.618 176.65C103.693 176.146 103.777 175.725 104.87 174.548C105.626 173.792 106.972 173.203 107.896 173.203C108.737 173.203 109.494 172.615 109.494 171.942C109.494 170.093 105.122 170.345 102.768 172.363C101.675 173.287 100.33 174.044 99.7417 174.044C98.0604 174.044 95.2861 168.748 94.6977 164.628C94.0251 159.668 95.5383 156.81 101.843 151.346C104.618 148.992 107.812 145.545 108.905 143.864C110.586 141.426 112.1 140.333 115.546 139.156C117.984 138.399 120.506 137.306 121.095 136.886C121.683 136.381 123.113 135.877 124.205 135.709C127.064 135.457 139.338 127.218 144.382 122.174C148.333 118.223 154.722 106.453 157.496 97.9625C158.085 96.113 159.094 94.0113 159.682 93.2547C160.271 92.5822 160.775 91.4893 160.775 90.9849C160.775 89.5557 162.12 89.7239 164.558 91.3212C166.407 92.5822 166.66 92.5822 166.66 91.4052C166.66 90.6486 166.323 89.8079 165.819 89.5557C164.558 88.7991 164.81 78.7951 166.323 68.8751C167.248 62.9062 167.5 58.1144 167.08 53.8269C166.744 50.3801 166.407 46.3449 166.323 44.9998C166.323 43.5706 165.567 41.469 164.81 40.2079C164.054 39.031 162.456 35.1639 161.279 31.549C158.757 23.7307 155.058 17.7618 150.855 14.6513C149.174 13.3903 147.576 12.2134 147.408 12.0452C147.156 11.8771 147.829 10.9523 148.753 9.85945C149.678 8.85065 150.939 7.08522 151.527 5.99234C152.536 3.97472 152.536 3.97472 148.669 4.56319C145.475 5.0676 144.802 4.98352 144.802 3.89064C144.802 1.87302 140.599 1.87302 137.488 3.89064C135.807 4.89946 135.555 4.89946 134.798 3.63844C134.125 2.29335 133.705 2.37743 130.595 4.89946C128.745 6.32861 126.727 7.58963 126.055 7.58963C123.449 7.58963 121.936 10.8683 121.179 17.7618C120.591 23.4784 120.086 25.1598 118.069 27.6818C114.874 31.7171 114.033 34.071 115.967 33.2303C121.179 31.1286 122.272 30.9605 124.29 31.8852C126.643 32.9781 126.812 34.5754 124.878 37.9381C123.533 40.1239 123.533 40.3761 124.878 41.8893C126.812 43.991 126.727 44.4954 123.785 48.951C121.095 53.0703 116.135 56.7693 112.268 57.694C111.007 57.9462 109.41 58.7869 108.905 59.5435C107.56 61.1408 102.348 61.0567 93.1844 59.2073C88.8129 58.2825 84.7777 58.0303 81.415 58.3666C73.1763 59.2073 71.7472 58.3666 60.398 46.7652C50.3099 36.4249 44.1729 31.4649 39.8855 30.372C38.1201 29.8676 36.775 28.1862 34.0848 23.0581C29.8814 14.9876 20.634 3.97472 16.1784 1.70488C11.8909 -0.480881 5.41769 -0.564941 4.57701 1.45268ZM82.676 158.239C86.2068 161.77 90.9146 169.756 90.9987 172.447C90.9987 173.203 91.5872 175.809 92.4278 178.163L93.7729 182.535L91.5872 184.805C90.3261 186.15 89.3173 187.999 89.3173 189.008C89.3173 191.194 88.3926 191.278 84.6936 189.596C81.415 187.999 78.3045 184.805 75.8665 180.433C73.5967 176.314 72.6719 166.478 74.1011 162.022C74.9417 159.5 77.9682 154.708 78.7248 154.708C78.8929 154.708 80.5743 156.306 82.676 158.239Z" fill="#80BA57"/>
</svg>
