<svg width="37" height="37" viewBox="0 0 37 37" fill="none" xmlns="http://www.w3.org/2000/svg">
<path d="M1.94281 1.95518C0.878595 3.03177 0 3.97224 0 4.03411C0 4.09599 3.22977 7.37525 7.18963 11.3351L14.3669 18.5124L7.18963 25.702C3.22977 29.6495 0 32.9288 0 32.9906C0 33.1515 3.87324 37 4.02174 37C4.09599 37 7.3505 33.795 11.2609 29.8846C15.1712 25.9742 18.4258 22.7692 18.5 22.7692C18.5742 22.7692 21.8288 25.9742 25.7391 29.8846C29.6495 33.795 32.9164 37 32.9783 37C33.1391 37 37 33.1391 37 32.9783C37 32.904 33.795 29.6495 29.8846 25.7391C25.9742 21.8288 22.7692 18.5742 22.7692 18.5C22.7692 18.4258 25.9742 15.1712 29.8846 11.2609C33.795 7.3505 37 4.08361 37 4.02174C37 3.87325 33.1391 0 32.9906 0C32.9288 0 29.6866 3.20502 25.7639 7.11539C21.8535 11.0258 18.5866 14.2308 18.5124 14.2308C18.4381 14.2308 15.1712 11.0258 11.2609 7.11539C7.3505 3.20502 4.08361 0 4.02174 0C3.94749 0 3.00702 0.878597 1.94281 1.95518Z" fill="white"/>
</svg>
