<svg width="19" height="20" viewBox="0 0 19 20" fill="none" xmlns="http://www.w3.org/2000/svg">
<path d="M0.845813 18.9333C1.10415 19.2 1.36248 19.3333 1.74998 19.3333C2.13748 19.3333 2.39581 19.2 2.65415 18.9333L9.49998 11.8667L16.3458 18.9333C16.6041 19.2 16.9916 19.3333 17.25 19.3333C17.5083 19.3333 17.8958 19.2 18.1541 18.9333C18.6708 18.4 18.6708 17.6 18.1541 17.0667L11.3083 9.99999L18.1541 2.93332C18.6708 2.39999 18.6708 1.59999 18.1541 1.06666C17.6375 0.533323 16.8625 0.533323 16.3458 1.06666L9.49998 8.13332L2.65415 1.06666C2.13748 0.533323 1.36248 0.533323 0.845813 1.06666C0.329146 1.59999 0.329146 2.39999 0.845813 2.93332L7.69165 9.99999L0.845813 17.0667C0.329146 17.6 0.329146 18.4 0.845813 18.9333Z" fill="white"/>
</svg>
