<svg width="279" height="278" viewBox="0 0 279 278" fill="none" xmlns="http://www.w3.org/2000/svg">
<rect width="277.601" height="277.601" transform="translate(0.917725 0.39917)" fill="white"/>
<path d="M68.6458 17.8262C63.7495 18.5366 59.9647 22.0287 59.3428 26.3878C59.2766 26.8815 59.2104 27.3873 59.2104 27.5077C59.2104 27.7004 59.1443 27.6883 58.6546 27.4114C55.0817 25.3884 51.3366 25.1716 47.7636 26.7611C45.5272 27.7485 43.8995 29.2417 42.8144 31.2647C41.7557 33.2396 41.4381 35.0338 41.8087 36.9484C42.2189 39.0798 43.1585 40.874 44.5479 42.2227L45.289 42.9452L46.5859 41.7651C48.9149 39.6337 50.8073 38.3934 53.7186 37.0447C56.6829 35.672 59.3692 34.9134 62.8761 34.4558C64.5832 34.227 65.2448 34.2029 68.0106 34.2511C72.7746 34.3354 75.8315 34.8532 80.1852 36.3222C81.3497 36.7196 84.4596 38.0803 85.3462 38.574C87.0004 39.5133 89.0118 40.7897 90.0308 41.5604C90.6395 42.03 91.1953 42.4033 91.2482 42.4033C91.3144 42.4033 91.5923 42.1143 91.8702 41.7651C93.445 39.8023 94.0802 37.9358 94.0537 35.4191C94.0008 31.6862 91.6982 28.4108 87.9929 26.7611C85.902 25.8219 84.4993 25.6292 81.2571 25.8219L80.741 25.8459L80.5822 25.2439C79.8544 22.3418 77.6444 19.8853 74.6669 18.645C72.9201 17.9225 70.3793 17.5853 68.6458 17.8262Z" fill="#80BA57"/>
<path d="M105.024 18.5844C104.932 18.6687 104.865 18.8613 104.879 19.0299L104.892 19.343L104.985 19.042C105.037 18.8734 105.196 18.7289 105.329 18.7048C105.752 18.6326 105.884 18.4399 105.514 18.4399C105.329 18.4399 105.117 18.5001 105.024 18.5844Z" fill="#80BA57"/>
<path d="M106.52 18.5604C106.559 18.6206 106.745 18.6808 106.93 18.6808C107.181 18.6808 107.248 18.741 107.261 19.0059C107.287 19.307 107.287 19.307 107.34 19.0661C107.38 18.9096 107.327 18.7049 107.248 18.6086C107.062 18.4159 106.387 18.3677 106.52 18.5604Z" fill="#80BA57"/>
<path d="M105.845 19.4518C105.726 19.7408 105.898 20.0298 106.15 19.9816C106.308 19.9576 106.388 19.8371 106.388 19.6445C106.388 19.2953 105.964 19.1508 105.845 19.4518ZM106.322 19.6445C106.322 19.7769 106.229 19.8853 106.123 19.8853C106.017 19.8853 105.925 19.7769 105.925 19.6445C105.925 19.512 106.017 19.4036 106.123 19.4036C106.229 19.4036 106.322 19.512 106.322 19.6445Z" fill="#80BA57"/>
<path d="M104.879 20.2464C104.866 20.6318 105.091 20.8485 105.514 20.8485C105.885 20.8485 105.752 20.6558 105.329 20.5836C105.196 20.5595 105.038 20.415 104.985 20.2464L104.892 19.9454L104.879 20.2464Z" fill="#80BA57"/>
<path d="M107.261 20.2227C107.261 20.3672 107.142 20.5237 107.022 20.5599C106.427 20.7405 106.387 20.7766 106.705 20.8248C107.102 20.885 107.419 20.596 107.34 20.2347C107.287 19.9457 107.287 19.9457 107.261 20.2227Z" fill="#80BA57"/>
<path d="M64.0539 36.816C55.4523 37.7071 48.3725 41.9337 44.3231 48.5928C43.7673 49.508 43.7805 49.5561 44.6936 49.7006C45.8978 49.8812 48.5445 50.9289 50.0928 51.832C51.3102 52.5425 52.7262 53.6262 53.9966 54.8304C54.6583 55.4445 55.5846 56.2634 56.061 56.6487C57.3049 57.612 58.5356 59.1775 59.5414 61.0078C60.8117 63.3439 61.4866 65.2706 62.188 68.5339C62.6247 70.4967 62.7703 73.194 62.5188 74.338C61.9101 77.1919 59.9516 79.5641 57.2123 80.7923L55.9287 81.3583L55.7699 82.2012C55.6772 82.6588 55.5846 84.152 55.5449 85.5127C55.492 87.5959 55.5184 88.2823 55.7699 89.9079C56.1669 92.6896 55.9948 92.4126 57.3446 92.3163C69.0296 91.5456 77.274 90.1006 85.4124 87.4032C87.2386 86.8012 87.8871 86.5362 90.2558 85.4525C97.3356 82.1892 101.398 78.0107 102.43 72.9291C103.277 68.7265 101.504 60.8753 98.4605 55.3C96.2637 51.2901 93.5906 47.9064 90.2823 44.9803C85.386 40.6332 79.1399 37.8395 72.2718 36.9123C70.2736 36.6474 66.1183 36.5992 64.0539 36.816ZM66.952 44.9321C68.3283 45.1127 69.731 45.5703 72.3115 46.6782C75.8977 48.2315 77.1681 48.5446 79.7618 48.5446C80.6352 48.5446 81.3234 48.5807 81.2704 48.6169C81.2307 48.653 80.6749 48.8457 80.0397 49.0504C77.5916 49.797 76.3741 50.5676 73.0526 53.4697C70.6573 55.5529 69.6251 56.2393 67.8122 56.9136C66.5947 57.3592 64.9008 57.7084 63.5113 57.7806C59.4487 58.0094 56.2463 55.1435 56.2463 51.254C56.2463 48.5205 57.9401 46.2567 60.6794 45.3415C62.0027 44.896 65.1126 44.7033 66.952 44.9321ZM94.9404 59.912C95.1919 61.7423 95.0463 64.6685 94.6228 66.2459C94.0935 68.1847 93.6568 69.3045 92.8099 70.882C91.5262 73.2663 90.5867 74.4584 88.5355 76.3008C85.3992 79.1185 81.2572 81.0452 77.1019 81.6112C75.0111 81.9002 74.7729 81.7918 76.4138 81.3101C82.9908 79.3473 88.1385 75.5542 91.341 70.316C93.2069 67.2574 94.4905 62.6455 94.5434 58.7801C94.5567 58.0335 94.7684 58.6356 94.9404 59.912Z" fill="#80BA57"/>
<path d="M64.6097 49.0142C63.9084 49.2189 63.3129 49.6524 62.9423 50.2063C62.6512 50.6639 62.585 50.9168 62.5983 51.5189C62.6115 52.41 63.0085 53.0482 63.8554 53.566C64.3186 53.8429 64.5436 53.8911 65.2979 53.8911C66.0521 53.8911 66.2771 53.8429 66.7403 53.566C67.0314 53.3854 67.4416 53.0241 67.6401 52.7472C68.4209 51.6634 67.971 50.0016 66.7006 49.3273C66.0786 48.9901 65.1655 48.8577 64.6097 49.0142Z" fill="#80BA57"/>
<path d="M41.0014 52.5787C38.4473 53.7828 36.5153 55.0592 35.0596 56.5163C34.2259 57.3592 33.3393 58.5152 33.4452 58.6116C33.4849 58.6477 33.776 58.5393 34.0936 58.3828C35.5096 57.6241 38.3282 56.7451 41.1469 56.1791C42.8673 55.8299 46.8902 55.3362 49.0075 55.2158C50.7278 55.1195 50.7411 55.1917 48.9546 54.12C47.274 53.0964 45.3419 52.3378 43.476 51.9766L42.6158 51.82L41.0014 52.5787Z" fill="#80BA57"/>
<path d="M50.4767 57.6478C50.2253 57.6719 49.1798 57.7442 48.1609 57.8164C42.3911 58.2138 37.7463 59.2614 34.8614 60.8148C33.9218 61.3205 32.5191 62.4766 32.2147 62.9943C32.0824 63.2231 32.1089 63.2231 32.6382 62.9221C33.6042 62.3682 34.9937 61.8383 36.3832 61.5132C38.9637 60.9111 43.4763 60.598 46.5332 60.8148L48.3594 60.9352L49.5107 59.8876C50.1591 59.3096 51.1119 58.575 51.6412 58.262C52.1573 57.9489 52.594 57.6599 52.594 57.6358C52.594 57.5756 51.2707 57.5876 50.4767 57.6478Z" fill="#80BA57"/>
<path d="M52.9115 60.5017C52.1175 61.0436 51.0323 62.031 50.2119 62.9703L49.7619 63.4881L48.2798 63.4038L46.7977 63.3195L46.5198 63.8252C45.8713 64.9692 45.5537 66.4263 45.4876 68.5336C45.4346 70.3519 45.4479 70.6529 45.7787 72.0618C46.93 77.1554 49.7355 79.6481 53.7584 79.1664C57.1726 78.757 59.8722 75.9151 59.8722 72.7361C59.8722 71.7969 59.3428 68.5576 58.9458 67.0886C58.2974 64.6802 57.1593 62.1033 56.1007 60.6583L55.611 59.9839H54.645C53.7187 59.9839 53.6525 60.008 52.9115 60.5017Z" fill="#80BA57"/>
<path d="M68.6458 186.104C63.7495 186.815 59.9647 190.307 59.3428 194.666C59.2766 195.159 59.2104 195.665 59.2104 195.786C59.2104 195.978 59.1443 195.966 58.6546 195.689C55.0817 193.666 51.3366 193.45 47.7636 195.039C45.5272 196.026 43.8995 197.52 42.8144 199.543C41.7557 201.518 41.4381 203.312 41.8087 205.226C42.2189 207.358 43.1585 209.152 44.5479 210.501L45.289 211.223L46.5859 210.043C48.9149 207.912 50.8073 206.671 53.7186 205.323C56.6829 203.95 59.3692 203.191 62.8761 202.734C64.5832 202.505 65.2448 202.481 68.0106 202.529C72.7746 202.613 75.8315 203.131 80.1852 204.6C81.3497 204.998 84.4596 206.358 85.3462 206.852C87.0004 207.791 89.0118 209.068 90.0308 209.838C90.6395 210.308 91.1953 210.681 91.2482 210.681C91.3144 210.681 91.5923 210.392 91.8702 210.043C93.445 208.08 94.0802 206.214 94.0537 203.697C94.0008 199.964 91.6982 196.689 87.9929 195.039C85.902 194.1 84.4993 193.907 81.2571 194.1L80.741 194.124L80.5822 193.522C79.8544 190.62 77.6444 188.163 74.6669 186.923C72.9201 186.2 70.3793 185.863 68.6458 186.104Z" fill="#80BA57"/>
<path d="M105.024 186.863C104.932 186.947 104.865 187.14 104.879 187.308L104.892 187.621L104.985 187.32C105.037 187.152 105.196 187.007 105.329 186.983C105.752 186.911 105.884 186.718 105.514 186.718C105.329 186.718 105.117 186.778 105.024 186.863Z" fill="#80BA57"/>
<path d="M106.52 186.839C106.559 186.899 106.745 186.959 106.93 186.959C107.181 186.959 107.248 187.019 107.261 187.284C107.287 187.585 107.287 187.585 107.34 187.344C107.38 187.188 107.327 186.983 107.248 186.887C107.062 186.694 106.387 186.646 106.52 186.839Z" fill="#80BA57"/>
<path d="M105.845 187.73C105.726 188.019 105.898 188.308 106.15 188.26C106.308 188.236 106.388 188.115 106.388 187.922C106.388 187.573 105.964 187.429 105.845 187.73ZM106.322 187.922C106.322 188.055 106.229 188.163 106.123 188.163C106.017 188.163 105.925 188.055 105.925 187.922C105.925 187.79 106.017 187.682 106.123 187.682C106.229 187.682 106.322 187.79 106.322 187.922Z" fill="#80BA57"/>
<path d="M104.879 188.524C104.866 188.91 105.091 189.126 105.514 189.126C105.885 189.126 105.752 188.934 105.329 188.862C105.196 188.837 105.038 188.693 104.985 188.524L104.892 188.223L104.879 188.524Z" fill="#80BA57"/>
<path d="M107.261 188.501C107.261 188.645 107.142 188.802 107.022 188.838C106.427 189.018 106.387 189.055 106.705 189.103C107.102 189.163 107.419 188.874 107.34 188.513C107.287 188.224 107.287 188.224 107.261 188.501Z" fill="#80BA57"/>
<path d="M64.0539 205.094C55.4523 205.985 48.3725 210.212 44.3231 216.871C43.7673 217.786 43.7805 217.834 44.6936 217.978C45.8978 218.159 48.5445 219.207 50.0928 220.11C51.3102 220.82 52.7262 221.904 53.9966 223.108C54.6583 223.722 55.5846 224.541 56.061 224.927C57.3049 225.89 58.5356 227.455 59.5414 229.286C60.8117 231.622 61.4866 233.548 62.188 236.812C62.6247 238.775 62.7703 241.472 62.5188 242.616C61.9101 245.47 59.9516 247.842 57.2123 249.07L55.9287 249.636L55.7699 250.479C55.6772 250.937 55.5846 252.43 55.5449 253.791C55.492 255.874 55.5184 256.56 55.7699 258.186C56.1669 260.967 55.9948 260.69 57.3446 260.594C69.0296 259.823 77.274 258.378 85.4124 255.681C87.2386 255.079 87.8871 254.814 90.2558 253.73C97.3356 250.467 101.398 246.289 102.43 241.207C103.277 237.004 101.504 229.153 98.4605 223.578C96.2637 219.568 93.5906 216.184 90.2823 213.258C85.386 208.911 79.1399 206.117 72.2718 205.19C70.2736 204.925 66.1183 204.877 64.0539 205.094ZM66.952 213.21C68.3283 213.391 69.731 213.848 72.3115 214.956C75.8977 216.509 77.1681 216.822 79.7618 216.822C80.6352 216.822 81.3234 216.859 81.2704 216.895C81.2307 216.931 80.6749 217.123 80.0397 217.328C77.5916 218.075 76.3741 218.845 73.0526 221.748C70.6573 223.831 69.6251 224.517 67.8122 225.191C66.5947 225.637 64.9008 225.986 63.5113 226.058C59.4487 226.287 56.2463 223.421 56.2463 219.532C56.2463 216.798 57.9401 214.535 60.6794 213.619C62.0027 213.174 65.1126 212.981 66.952 213.21ZM94.9404 228.19C95.1919 230.02 95.0463 232.946 94.6228 234.524C94.0935 236.462 93.6568 237.582 92.8099 239.16C91.5262 241.544 90.5867 242.736 88.5355 244.579C85.3992 247.396 81.2572 249.323 77.1019 249.889C75.0111 250.178 74.7729 250.07 76.4138 249.588C82.9908 247.625 88.1385 243.832 91.341 238.594C93.2069 235.535 94.4905 230.923 94.5434 227.058C94.5567 226.311 94.7684 226.913 94.9404 228.19Z" fill="#80BA57"/>
<path d="M64.6097 217.292C63.9084 217.497 63.3129 217.93 62.9423 218.484C62.6512 218.942 62.585 219.195 62.5983 219.797C62.6115 220.688 63.0085 221.326 63.8554 221.844C64.3186 222.121 64.5436 222.169 65.2979 222.169C66.0521 222.169 66.2771 222.121 66.7403 221.844C67.0314 221.663 67.4416 221.302 67.6401 221.025C68.4209 219.941 67.971 218.28 66.7006 217.605C66.0786 217.268 65.1655 217.136 64.6097 217.292Z" fill="#80BA57"/>
<path d="M41.0014 220.857C38.4473 222.061 36.5153 223.337 35.0596 224.794C34.2259 225.637 33.3393 226.793 33.4452 226.89C33.4849 226.926 33.776 226.817 34.0936 226.661C35.5096 225.902 38.3282 225.023 41.1469 224.457C42.8673 224.108 46.8902 223.614 49.0075 223.494C50.7278 223.397 50.7411 223.47 48.9546 222.398C47.274 221.374 45.3419 220.616 43.476 220.255L42.6158 220.098L41.0014 220.857Z" fill="#80BA57"/>
<path d="M50.4767 225.926C50.2253 225.95 49.1798 226.022 48.1609 226.095C42.3911 226.492 37.7463 227.54 34.8614 229.093C33.9218 229.599 32.5191 230.755 32.2147 231.273C32.0824 231.501 32.1089 231.501 32.6382 231.2C33.6042 230.646 34.9937 230.117 36.3832 229.791C38.9637 229.189 43.4763 228.876 46.5332 229.093L48.3594 229.213L49.5107 228.166C50.1591 227.588 51.1119 226.853 51.6412 226.54C52.1573 226.227 52.594 225.938 52.594 225.914C52.594 225.854 51.2707 225.866 50.4767 225.926Z" fill="#80BA57"/>
<path d="M52.9115 228.78C52.1175 229.322 51.0323 230.309 50.2119 231.248L49.7619 231.766L48.2798 231.682L46.7977 231.597L46.5198 232.103C45.8713 233.247 45.5537 234.704 45.4876 236.812C45.4346 238.63 45.4479 238.931 45.7787 240.34C46.93 245.433 49.7355 247.926 53.7584 247.444C57.1726 247.035 59.8722 244.193 59.8722 241.014C59.8722 240.075 59.3428 236.836 58.9458 235.367C58.2974 232.958 57.1593 230.381 56.1007 228.936L55.611 228.262H54.645C53.7187 228.262 53.6525 228.286 52.9115 228.78Z" fill="#80BA57"/>
<path d="M209.782 17.8262C204.886 18.5366 201.101 22.0287 200.479 26.3878C200.413 26.8815 200.347 27.3873 200.347 27.5077C200.347 27.7004 200.281 27.6883 199.791 27.4114C196.218 25.3884 192.473 25.1716 188.9 26.7611C186.664 27.7485 185.036 29.2417 183.951 31.2647C182.892 33.2396 182.575 35.0338 182.945 36.9484C183.355 39.0798 184.295 40.874 185.685 42.2227L186.426 42.9452L187.722 41.7651C190.052 39.6337 191.944 38.3934 194.855 37.0447C197.819 35.672 200.506 34.9134 204.013 34.4558C205.72 34.227 206.381 34.2029 209.147 34.2511C213.911 34.3354 216.968 34.8532 221.322 36.3222C222.486 36.7196 225.596 38.0803 226.483 38.574C228.137 39.5133 230.148 40.7897 231.167 41.5604C231.776 42.03 232.332 42.4033 232.385 42.4033C232.451 42.4033 232.729 42.1143 233.007 41.7651C234.582 39.8023 235.217 37.9358 235.19 35.4191C235.137 31.6862 232.835 28.4108 229.129 26.7611C227.039 25.8219 225.636 25.6292 222.394 25.8219L221.878 25.8459L221.719 25.2439C220.991 22.3418 218.781 19.8853 215.804 18.645C214.057 17.9225 211.516 17.5853 209.782 17.8262Z" fill="#80BA57"/>
<path d="M246.161 18.5844C246.068 18.6687 246.002 18.8613 246.015 19.0299L246.028 19.343L246.121 19.042C246.174 18.8734 246.333 18.7289 246.465 18.7048C246.888 18.6326 247.021 18.4399 246.65 18.4399C246.465 18.4399 246.253 18.5001 246.161 18.5844Z" fill="#80BA57"/>
<path d="M247.656 18.5604C247.696 18.6206 247.881 18.6808 248.067 18.6808C248.318 18.6808 248.384 18.741 248.397 19.0059C248.424 19.307 248.424 19.307 248.477 19.0661C248.517 18.9096 248.464 18.7049 248.384 18.6086C248.199 18.4159 247.524 18.3677 247.656 18.5604Z" fill="#80BA57"/>
<path d="M246.981 19.4518C246.862 19.7408 247.034 20.0298 247.285 19.9816C247.444 19.9576 247.524 19.8371 247.524 19.6445C247.524 19.2953 247.1 19.1508 246.981 19.4518ZM247.457 19.6445C247.457 19.7769 247.365 19.8853 247.259 19.8853C247.153 19.8853 247.06 19.7769 247.06 19.6445C247.06 19.512 247.153 19.4036 247.259 19.4036C247.365 19.4036 247.457 19.512 247.457 19.6445Z" fill="#80BA57"/>
<path d="M246.015 20.2464C246.002 20.6318 246.227 20.8485 246.65 20.8485C247.021 20.8485 246.889 20.6558 246.465 20.5836C246.333 20.5595 246.174 20.415 246.121 20.2464L246.028 19.9454L246.015 20.2464Z" fill="#80BA57"/>
<path d="M248.397 20.2227C248.397 20.3672 248.278 20.5237 248.159 20.5599C247.564 20.7405 247.524 20.7766 247.841 20.8248C248.238 20.885 248.556 20.596 248.477 20.2347C248.424 19.9457 248.424 19.9457 248.397 20.2227Z" fill="#80BA57"/>
<path d="M205.191 36.816C196.589 37.7071 189.509 41.9337 185.46 48.5928C184.904 49.508 184.917 49.5561 185.83 49.7006C187.035 49.8812 189.681 50.9289 191.229 51.832C192.447 52.5425 193.863 53.6262 195.133 54.8304C195.795 55.4445 196.721 56.2634 197.198 56.6487C198.442 57.612 199.672 59.1775 200.678 61.0078C201.948 63.3439 202.623 65.2706 203.325 68.5339C203.761 70.4967 203.907 73.194 203.656 74.338C203.047 77.1919 201.088 79.5641 198.349 80.7923L197.065 81.3583L196.907 82.2012C196.814 82.6588 196.721 84.152 196.682 85.5127C196.629 87.5959 196.655 88.2823 196.907 89.9079C197.304 92.6896 197.132 92.4126 198.481 92.3163C210.166 91.5456 218.411 90.1006 226.549 87.4032C228.375 86.8012 229.024 86.5362 231.393 85.4525C238.472 82.1892 242.535 78.0107 243.567 72.9291C244.414 68.7265 242.641 60.8753 239.597 55.3C237.4 51.2901 234.727 47.9064 231.419 44.9803C226.523 40.6332 220.277 37.8395 213.409 36.9123C211.41 36.6474 207.255 36.5992 205.191 36.816ZM208.089 44.9321C209.465 45.1127 210.868 45.5703 213.448 46.6782C217.034 48.2315 218.305 48.5446 220.899 48.5446C221.772 48.5446 222.46 48.5807 222.407 48.6169C222.367 48.653 221.812 48.8457 221.176 49.0504C218.728 49.797 217.511 50.5676 214.189 53.4697C211.794 55.5529 210.762 56.2393 208.949 56.9136C207.731 57.3592 206.038 57.7084 204.648 57.7806C200.585 58.0094 197.383 55.1435 197.383 51.254C197.383 48.5205 199.077 46.2567 201.816 45.3415C203.139 44.896 206.249 44.7033 208.089 44.9321ZM236.077 59.912C236.329 61.7423 236.183 64.6685 235.76 66.2459C235.23 68.1847 234.794 69.3045 233.947 70.882C232.663 73.2663 231.723 74.4584 229.672 76.3008C226.536 79.1185 222.394 81.0452 218.239 81.6112C216.148 81.9002 215.91 81.7918 217.551 81.3101C224.127 79.3473 229.275 75.5542 232.478 70.316C234.344 67.2574 235.627 62.6455 235.68 58.7801C235.693 58.0335 235.905 58.6356 236.077 59.912Z" fill="#80BA57"/>
<path d="M205.746 49.0142C205.045 49.2189 204.449 49.6524 204.079 50.2063C203.787 50.6639 203.721 50.9168 203.734 51.5189C203.748 52.41 204.145 53.0482 204.992 53.566C205.455 53.8429 205.68 53.8911 206.434 53.8911C207.188 53.8911 207.413 53.8429 207.877 53.566C208.168 53.3854 208.578 53.0241 208.776 52.7472C209.557 51.6634 209.107 50.0016 207.837 49.3273C207.215 48.9901 206.302 48.8577 205.746 49.0142Z" fill="#80BA57"/>
<path d="M182.138 52.5787C179.584 53.7828 177.652 55.0592 176.196 56.5163C175.363 57.3592 174.476 58.5152 174.582 58.6116C174.622 58.6477 174.913 58.5393 175.23 58.3828C176.646 57.6241 179.465 56.7451 182.284 56.1791C184.004 55.8299 188.027 55.3362 190.144 55.2158C191.865 55.1195 191.878 55.1917 190.091 54.12C188.411 53.0964 186.479 52.3378 184.613 51.9766L183.753 51.82L182.138 52.5787Z" fill="#80BA57"/>
<path d="M191.613 57.6478C191.362 57.6719 190.316 57.7442 189.297 57.8164C183.527 58.2138 178.883 59.2614 175.998 60.8148C175.058 61.3205 173.655 62.4766 173.351 62.9943C173.219 63.2231 173.245 63.2231 173.775 62.9221C174.741 62.3682 176.13 61.8383 177.52 61.5132C180.1 60.9111 184.613 60.598 187.67 60.8148L189.496 60.9352L190.647 59.8876C191.295 59.3096 192.248 58.575 192.778 58.262C193.294 57.9489 193.73 57.6599 193.73 57.6358C193.73 57.5756 192.407 57.5876 191.613 57.6478Z" fill="#80BA57"/>
<path d="M194.048 60.5017C193.254 61.0436 192.169 62.031 191.348 62.9703L190.898 63.4881L189.416 63.4038L187.934 63.3195L187.656 63.8252C187.008 64.9692 186.69 66.4263 186.624 68.5336C186.571 70.3519 186.584 70.6529 186.915 72.0618C188.066 77.1554 190.872 79.6481 194.895 79.1664C198.309 78.757 201.008 75.9151 201.008 72.7361C201.008 71.7969 200.479 68.5576 200.082 67.0886C199.434 64.6802 198.296 62.1033 197.237 60.6583L196.747 59.9839H195.781C194.855 59.9839 194.789 60.008 194.048 60.5017Z" fill="#80BA57"/>
<path d="M209.782 186.104C204.886 186.815 201.101 190.307 200.479 194.666C200.413 195.159 200.347 195.665 200.347 195.786C200.347 195.978 200.281 195.966 199.791 195.689C196.218 193.666 192.473 193.45 188.9 195.039C186.664 196.026 185.036 197.52 183.951 199.543C182.892 201.518 182.575 203.312 182.945 205.226C183.355 207.358 184.295 209.152 185.685 210.501L186.426 211.223L187.722 210.043C190.052 207.912 191.944 206.671 194.855 205.323C197.819 203.95 200.506 203.191 204.013 202.734C205.72 202.505 206.381 202.481 209.147 202.529C213.911 202.613 216.968 203.131 221.322 204.6C222.486 204.998 225.596 206.358 226.483 206.852C228.137 207.791 230.148 209.068 231.167 209.838C231.776 210.308 232.332 210.681 232.385 210.681C232.451 210.681 232.729 210.392 233.007 210.043C234.582 208.08 235.217 206.214 235.19 203.697C235.137 199.964 232.835 196.689 229.129 195.039C227.039 194.1 225.636 193.907 222.394 194.1L221.878 194.124L221.719 193.522C220.991 190.62 218.781 188.163 215.804 186.923C214.057 186.2 211.516 185.863 209.782 186.104Z" fill="#80BA57"/>
<path d="M246.161 186.863C246.068 186.947 246.002 187.14 246.015 187.308L246.028 187.621L246.121 187.32C246.174 187.152 246.333 187.007 246.465 186.983C246.888 186.911 247.021 186.718 246.65 186.718C246.465 186.718 246.253 186.778 246.161 186.863Z" fill="#80BA57"/>
<path d="M247.656 186.839C247.696 186.899 247.881 186.959 248.067 186.959C248.318 186.959 248.384 187.019 248.397 187.284C248.424 187.585 248.424 187.585 248.477 187.344C248.517 187.188 248.464 186.983 248.384 186.887C248.199 186.694 247.524 186.646 247.656 186.839Z" fill="#80BA57"/>
<path d="M246.981 187.73C246.862 188.019 247.034 188.308 247.285 188.26C247.444 188.236 247.524 188.115 247.524 187.922C247.524 187.573 247.1 187.429 246.981 187.73ZM247.457 187.922C247.457 188.055 247.365 188.163 247.259 188.163C247.153 188.163 247.06 188.055 247.06 187.922C247.06 187.79 247.153 187.682 247.259 187.682C247.365 187.682 247.457 187.79 247.457 187.922Z" fill="#80BA57"/>
<path d="M246.015 188.524C246.002 188.91 246.227 189.126 246.65 189.126C247.021 189.126 246.889 188.934 246.465 188.862C246.333 188.837 246.174 188.693 246.121 188.524L246.028 188.223L246.015 188.524Z" fill="#80BA57"/>
<path d="M248.397 188.501C248.397 188.645 248.278 188.802 248.159 188.838C247.564 189.018 247.524 189.055 247.841 189.103C248.238 189.163 248.556 188.874 248.477 188.513C248.424 188.224 248.424 188.224 248.397 188.501Z" fill="#80BA57"/>
<path d="M205.191 205.094C196.589 205.985 189.509 210.212 185.46 216.871C184.904 217.786 184.917 217.834 185.83 217.978C187.035 218.159 189.681 219.207 191.229 220.11C192.447 220.82 193.863 221.904 195.133 223.108C195.795 223.722 196.721 224.541 197.198 224.927C198.442 225.89 199.672 227.455 200.678 229.286C201.948 231.622 202.623 233.548 203.325 236.812C203.761 238.775 203.907 241.472 203.656 242.616C203.047 245.47 201.088 247.842 198.349 249.07L197.065 249.636L196.907 250.479C196.814 250.937 196.721 252.43 196.682 253.791C196.629 255.874 196.655 256.56 196.907 258.186C197.304 260.967 197.132 260.69 198.481 260.594C210.166 259.823 218.411 258.378 226.549 255.681C228.375 255.079 229.024 254.814 231.393 253.73C238.472 250.467 242.535 246.289 243.567 241.207C244.414 237.004 242.641 229.153 239.597 223.578C237.4 219.568 234.727 216.184 231.419 213.258C226.523 208.911 220.277 206.117 213.409 205.19C211.41 204.925 207.255 204.877 205.191 205.094ZM208.089 213.21C209.465 213.391 210.868 213.848 213.448 214.956C217.034 216.509 218.305 216.822 220.899 216.822C221.772 216.822 222.46 216.859 222.407 216.895C222.367 216.931 221.812 217.123 221.176 217.328C218.728 218.075 217.511 218.845 214.189 221.748C211.794 223.831 210.762 224.517 208.949 225.191C207.731 225.637 206.038 225.986 204.648 226.058C200.585 226.287 197.383 223.421 197.383 219.532C197.383 216.798 199.077 214.535 201.816 213.619C203.139 213.174 206.249 212.981 208.089 213.21ZM236.077 228.19C236.329 230.02 236.183 232.946 235.76 234.524C235.23 236.462 234.794 237.582 233.947 239.16C232.663 241.544 231.723 242.736 229.672 244.579C226.536 247.396 222.394 249.323 218.239 249.889C216.148 250.178 215.91 250.07 217.551 249.588C224.127 247.625 229.275 243.832 232.478 238.594C234.344 235.535 235.627 230.923 235.68 227.058C235.693 226.311 235.905 226.913 236.077 228.19Z" fill="#80BA57"/>
<path d="M205.746 217.292C205.045 217.497 204.449 217.93 204.079 218.484C203.787 218.942 203.721 219.195 203.734 219.797C203.748 220.688 204.145 221.326 204.992 221.844C205.455 222.121 205.68 222.169 206.434 222.169C207.188 222.169 207.413 222.121 207.877 221.844C208.168 221.663 208.578 221.302 208.776 221.025C209.557 219.941 209.107 218.28 207.837 217.605C207.215 217.268 206.302 217.136 205.746 217.292Z" fill="#80BA57"/>
<path d="M182.138 220.857C179.584 222.061 177.652 223.337 176.196 224.794C175.363 225.637 174.476 226.793 174.582 226.89C174.622 226.926 174.913 226.817 175.23 226.661C176.646 225.902 179.465 225.023 182.284 224.457C184.004 224.108 188.027 223.614 190.144 223.494C191.865 223.397 191.878 223.47 190.091 222.398C188.411 221.374 186.479 220.616 184.613 220.255L183.753 220.098L182.138 220.857Z" fill="#80BA57"/>
<path d="M191.613 225.926C191.362 225.95 190.316 226.022 189.297 226.095C183.527 226.492 178.883 227.54 175.998 229.093C175.058 229.599 173.655 230.755 173.351 231.273C173.219 231.501 173.245 231.501 173.775 231.2C174.741 230.646 176.13 230.117 177.52 229.791C180.1 229.189 184.613 228.876 187.67 229.093L189.496 229.213L190.647 228.166C191.295 227.588 192.248 226.853 192.778 226.54C193.294 226.227 193.73 225.938 193.73 225.914C193.73 225.854 192.407 225.866 191.613 225.926Z" fill="#80BA57"/>
<path d="M194.048 228.78C193.254 229.322 192.169 230.309 191.348 231.248L190.898 231.766L189.416 231.682L187.934 231.597L187.656 232.103C187.008 233.247 186.69 234.704 186.624 236.812C186.571 238.63 186.584 238.931 186.915 240.34C188.066 245.433 190.872 247.926 194.895 247.444C198.309 247.035 201.008 244.193 201.008 241.014C201.008 240.075 200.479 236.836 200.082 235.367C199.434 232.958 198.296 230.381 197.237 228.936L196.747 228.262H195.781C194.855 228.262 194.789 228.286 194.048 228.78Z" fill="#80BA57"/>
</svg>
