<svg width="71" height="46" viewBox="0 0 71 46" fill="none" xmlns="http://www.w3.org/2000/svg">
<path d="M0 30V0.499998H4.5V30H0ZM6 30V0.499998H10.5V30H6ZM12 30V0.499998H13.5V30H12ZM15 30V0.499998H16.5V30H15ZM21 30V0.499998H22.5V30H21ZM8.1 34.35H9.15L12 40.05L14.9 34.35H15.9V45.95H14.65V37.2L12.15 41.9H11.65L9.3 37.25V45.95H8.1V34.35ZM24.0234 30V0.499998H28.5234V30H24.0234ZM30.0234 30V0.499998H31.5234V30H30.0234ZM33.0234 30V0.499998H34.5234V30H33.0234ZM39.0234 30V0.499998H40.5234V30H39.0234ZM42.0234 30V0.499998H46.5234V30H42.0234ZM37.8734 42.55H34.1234L32.9734 45.95H31.6734L35.9234 34.15H36.0734L40.3734 45.95H39.0234L37.8734 42.55ZM37.5234 41.55L36.0234 37.15L34.4734 41.55H37.5234ZM48.0469 30V0.499998H52.5469V30H48.0469ZM54.0469 30V0.499998H58.5469V30H54.0469ZM60.0469 30V0.499998H61.5469V30H60.0469ZM63.0469 30V0.499998H64.5469V30H63.0469ZM69.0469 30V0.499998H70.5469V30H69.0469ZM56.1469 34.35H57.1969L60.0469 40.05L62.9469 34.35H63.9469V45.95H62.6969V37.2L60.1969 41.9H59.6969L57.3469 37.25V45.95H56.1469V34.35Z" fill="#80BA57"/>
</svg>
