<svg width="50" height="50" viewBox="0 0 50 50" fill="none" xmlns="http://www.w3.org/2000/svg">
<path d="M8.33334 12.5C8.33334 11.3494 9.26609 10.4167 10.4167 10.4167H39.5833C40.734 10.4167 41.6667 11.3494 41.6667 12.5C41.6667 13.6506 40.734 14.5833 39.5833 14.5833H10.4167C9.26609 14.5833 8.33334 13.6506 8.33334 12.5Z" fill="#444444"/>
<path d="M8.33334 37.5C8.33334 36.3494 9.26609 35.4167 10.4167 35.4167H39.5833C40.734 35.4167 41.6667 36.3494 41.6667 37.5C41.6667 38.6506 40.734 39.5833 39.5833 39.5833H10.4167C9.26609 39.5833 8.33334 38.6506 8.33334 37.5Z" fill="#444444"/>
<path d="M22.9167 22.9167C21.766 22.9167 20.8333 23.8494 20.8333 25C20.8333 26.1506 21.766 27.0833 22.9167 27.0833H39.5833C40.734 27.0833 41.6667 26.1506 41.6667 25C41.6667 23.8494 40.734 22.9167 39.5833 22.9167H22.9167Z" fill="#444444"/>
</svg>
