<svg width="300" height="300" viewBox="0 0 300 300" fill="none" xmlns="http://www.w3.org/2000/svg">
<rect x="8" y="8" width="284" height="284" rx="142" fill="white"/>
<rect x="8" y="8" width="284" height="284" rx="142" stroke="#80BA57" stroke-width="16"/>
<path d="M70.577 55.4527C69.316 58.5632 70.1567 64.532 72.3424 68.9035L74.5282 73.2751L70.8292 72.7706C67.4665 72.3503 66.9621 72.5184 66.3736 74.1998C65.1967 77.3103 66.878 85.1286 70.3248 92.1062L73.5194 98.7476L71.1655 98.2432C69.5682 97.991 68.7275 98.1591 68.3912 99.0839C67.5506 101.354 67.8868 105.641 69.1479 107.827C69.7363 109.004 70.8292 111.022 71.5858 112.451C72.2584 113.796 73.9397 116.234 75.3689 117.831C78.5634 121.278 78.6475 122.455 75.8733 121.782C74.3601 121.362 73.6034 121.614 73.2672 122.455C72.4265 124.725 75.9573 131.03 80.0767 134.308L84.0279 137.587L83.4394 147.507C82.7668 157.931 83.019 158.94 86.718 166.674C89.3241 172.223 104.877 188.028 110.257 190.634C113.956 192.399 115.133 193.66 117.823 198.284C119.673 201.31 122.615 205.177 124.464 206.859C126.314 208.54 128.668 210.81 129.677 211.735C133.376 215.181 135.225 226.867 133.544 235.694C132.199 242.419 131.442 243.933 127.659 246.959C123.54 250.238 119.168 256.123 119.168 258.308C119.168 259.906 119.336 259.99 121.522 258.813C122.783 258.14 124.296 256.711 124.969 255.618C126.398 253.012 132.703 249.061 135.393 249.061C137.747 249.061 141.866 250.658 141.866 251.583C141.866 251.919 142.875 253.264 144.22 254.609C145.481 255.87 147.415 258.729 148.592 260.83C149.769 262.848 151.366 264.697 152.207 264.866C154.14 265.286 154.056 264.109 151.618 258.897C149.096 253.348 148.34 250.154 149.433 249.481C150.778 248.64 161.034 253.853 162.547 256.207C163.304 257.384 164.481 258.308 165.069 258.308C167.423 258.308 167.255 255.786 164.901 252.76C163.556 251.078 161.622 248.556 160.698 247.211L158.848 244.773L160.698 242.756C161.706 241.663 164.229 240.15 166.33 239.477C173.56 236.955 179.361 237.964 188.02 243.344C189.869 244.437 192.475 243.68 191.803 242.167C191.382 241.074 186.17 236.955 182.303 234.769L180.117 233.508L183.396 233.256C185.245 233.088 187.599 233.424 188.692 234.013C189.785 234.601 190.878 234.769 191.214 234.433C192.223 233.424 188.356 230.65 184.489 229.641C181.631 228.885 180.622 228.969 178.772 230.061C176.334 231.491 172.383 231.827 170.618 230.65C169.693 230.146 169.777 229.725 170.87 228.548C171.626 227.792 172.972 227.203 173.896 227.203C174.737 227.203 175.494 226.615 175.494 225.942C175.494 224.093 171.122 224.345 168.768 226.363C167.675 227.287 166.33 228.044 165.742 228.044C164.06 228.044 161.286 222.748 160.698 218.628C160.025 213.668 161.538 210.81 167.843 205.346C170.618 202.992 173.812 199.545 174.905 197.864C176.586 195.426 178.1 194.333 181.546 193.156C183.984 192.399 186.506 191.306 187.095 190.886C187.683 190.381 189.113 189.877 190.205 189.709C193.064 189.457 205.338 181.218 210.382 176.174C214.333 172.223 220.722 160.453 223.496 151.963C224.085 150.113 225.094 148.011 225.682 147.255C226.271 146.582 226.775 145.489 226.775 144.985C226.775 143.556 228.12 143.724 230.558 145.321C232.407 146.582 232.66 146.582 232.66 145.405C232.66 144.649 232.323 143.808 231.819 143.556C230.558 142.799 230.81 132.795 232.323 122.875C233.248 116.906 233.5 112.114 233.08 107.827C232.744 104.38 232.407 100.345 232.323 98.9998C232.323 97.5707 231.567 95.469 230.81 94.2079C230.054 93.031 228.456 89.1639 227.279 85.5489C224.757 77.7306 221.058 71.7618 216.855 68.6513C215.174 67.3903 213.576 66.2134 213.408 66.0452C213.156 65.8771 213.829 64.9523 214.753 63.8595C215.678 62.8506 216.939 61.0852 217.527 59.9923C218.536 57.9747 218.536 57.9747 214.669 58.5632C211.475 59.0676 210.802 58.9835 210.802 57.8906C210.802 55.873 206.599 55.873 203.488 57.8906C201.807 58.8995 201.555 58.8995 200.798 57.6384C200.125 56.2934 199.705 56.3774 196.595 58.8995C194.745 60.3286 192.727 61.5896 192.055 61.5896C189.449 61.5896 187.936 64.8683 187.179 71.7618C186.591 77.4784 186.086 79.1598 184.069 81.6818C180.874 85.7171 180.033 88.071 181.967 87.2303C187.179 85.1286 188.272 84.9605 190.29 85.8852C192.643 86.9781 192.812 88.5754 190.878 91.9381C189.533 94.1239 189.533 94.3761 190.878 95.8893C192.812 97.991 192.727 98.4954 189.785 102.951C187.095 107.07 182.135 110.769 178.268 111.694C177.007 111.946 175.41 112.787 174.905 113.544C173.56 115.141 168.348 115.057 159.184 113.207C154.813 112.283 150.778 112.03 147.415 112.367C139.176 113.207 137.747 112.367 126.398 100.765C116.31 90.4249 110.173 85.4649 105.885 84.372C104.12 83.8676 102.775 82.1862 100.085 77.0581C95.8814 68.9876 86.634 57.9747 82.1784 55.7049C77.8909 53.5191 71.4177 53.4351 70.577 55.4527ZM148.676 212.239C152.207 215.77 156.915 223.756 156.999 226.447C156.999 227.203 157.587 229.809 158.428 232.163L159.773 236.535L157.587 238.805C156.326 240.15 155.317 241.999 155.317 243.008C155.317 245.194 154.393 245.278 150.694 243.596C147.415 241.999 144.304 238.805 141.866 234.433C139.597 230.314 138.672 220.478 140.101 216.022C140.942 213.5 143.968 208.708 144.725 208.708C144.893 208.708 146.574 210.306 148.676 212.239Z" fill="#80BA57"/>
</svg>
